<?xml version="1.0" encoding="UTF-8"?>
<svg id="Capa_3" data-name="Capa 3" xmlns="http://www.w3.org/2000/svg" xmlns:xlink="http://www.w3.org/1999/xlink" viewBox="0 0 300 300">
  <defs>
    <style>
      .cls-1 {
        fill: url(#Degradado_sin_nombre_90-12);
      }

      .cls-1, .cls-2, .cls-3, .cls-4, .cls-5, .cls-6, .cls-7, .cls-8, .cls-9, .cls-10, .cls-11, .cls-12, .cls-13, .cls-14 {
        stroke-width: 0px;
      }

      .cls-2 {
        fill: url(#Degradado_sin_nombre_90-11);
      }

      .cls-15 {
        stroke-width: 10px;
      }

      .cls-15, .cls-16, .cls-17, .cls-18 {
        stroke-linejoin: round;
      }

      .cls-15, .cls-7 {
        fill: #235ba1;
      }

      .cls-15, .cls-17, .cls-18 {
        stroke: #fff;
      }

      .cls-3 {
        fill: url(#Degradado_sin_nombre_90-8);
      }

      .cls-4 {
        fill: url(#Degradado_sin_nombre_90-13);
      }

      .cls-19 {
        stroke-width: 7.15px;
      }

      .cls-19, .cls-16, .cls-20, .cls-13 {
        fill: #fff;
      }

      .cls-19, .cls-21, .cls-22, .cls-20, .cls-23 {
        stroke-miterlimit: 10;
      }

      .cls-19, .cls-20 {
        stroke: #235ba1;
      }

      .cls-5 {
        fill: url(#Degradado_sin_nombre_90-14);
      }

      .cls-6, .cls-17, .cls-21, .cls-22, .cls-18 {
        fill: none;
      }

      .cls-24 {
        clip-path: url(#clippath-1);
      }

      .cls-16 {
        stroke-width: 3.67px;
      }

      .cls-16, .cls-17, .cls-18 {
        stroke-linecap: round;
      }

      .cls-16, .cls-23 {
        stroke: #296bbd;
      }

      .cls-8 {
        fill: url(#Degradado_sin_nombre_90-9);
      }

      .cls-17 {
        stroke-width: 6.22px;
      }

      .cls-21 {
        stroke: url(#Degradado_sin_nombre_90-2);
      }

      .cls-21, .cls-22 {
        stroke-width: 8.37px;
      }

      .cls-9 {
        fill: url(#Degradado_sin_nombre_90-5);
      }

      .cls-22 {
        stroke: url(#Degradado_sin_nombre_90);
      }

      .cls-20 {
        stroke-width: 7.04px;
      }

      .cls-23 {
        fill: url(#Degradado_sin_nombre_90-10);
        stroke-width: 3.69px;
      }

      .cls-25 {
        clip-path: url(#clippath);
      }

      .cls-10 {
        fill: url(#Degradado_sin_nombre_90-3);
      }

      .cls-11 {
        fill: url(#Degradado_sin_nombre_90-7);
      }

      .cls-18 {
        stroke-width: 7.36px;
      }

      .cls-12 {
        fill: url(#Degradado_sin_nombre_90-6);
      }

      .cls-14 {
        fill: url(#Degradado_sin_nombre_90-4);
      }
    </style>
    <clipPath id="clippath">
      <rect class="cls-6" x="150.48" y="60.46" width="99.79" height="85.96"/>
    </clipPath>
    <linearGradient id="Degradado_sin_nombre_90" data-name="Degradado sin nombre 90" x1="178.97" y1="88.12" x2="225.32" y2="88.12" gradientUnits="userSpaceOnUse">
      <stop offset="0" stop-color="#16ecff"/>
      <stop offset="1" stop-color="#1271cf"/>
    </linearGradient>
    <linearGradient id="Degradado_sin_nombre_90-2" data-name="Degradado sin nombre 90" x1="162.66" y1="140.51" x2="241.63" y2="140.51" xlink:href="#Degradado_sin_nombre_90"/>
    <linearGradient id="Degradado_sin_nombre_90-3" data-name="Degradado sin nombre 90" x1="172.43" y1="36.46" x2="231.86" y2="36.46" xlink:href="#Degradado_sin_nombre_90"/>
    <linearGradient id="Degradado_sin_nombre_90-4" data-name="Degradado sin nombre 90" x1="25.27" y1="184.54" x2="180.42" y2="184.54" xlink:href="#Degradado_sin_nombre_90"/>
    <linearGradient id="Degradado_sin_nombre_90-5" data-name="Degradado sin nombre 90" x1="105.24" y1="76.38" x2="191.98" y2="76.38" gradientTransform="translate(-43.72 2.6) scale(.99)" xlink:href="#Degradado_sin_nombre_90"/>
    <linearGradient id="Degradado_sin_nombre_90-6" data-name="Degradado sin nombre 90" x1="25.27" y1="120.32" x2="180.42" y2="120.32" xlink:href="#Degradado_sin_nombre_90"/>
    <linearGradient id="Degradado_sin_nombre_90-7" data-name="Degradado sin nombre 90" x1="105.24" y1="118.87" x2="191.98" y2="118.87" gradientTransform="translate(-43.72 2.6) scale(.99)" xlink:href="#Degradado_sin_nombre_90"/>
    <linearGradient id="Degradado_sin_nombre_90-8" data-name="Degradado sin nombre 90" x1="105.24" y1="114.7" x2="191.98" y2="114.7" gradientTransform="translate(-43.72 2.6) scale(.99)" xlink:href="#Degradado_sin_nombre_90"/>
    <linearGradient id="Degradado_sin_nombre_90-9" data-name="Degradado sin nombre 90" x1="105.24" y1="116.59" x2="191.98" y2="116.59" gradientTransform="translate(-43.72 2.6) scale(.99)" xlink:href="#Degradado_sin_nombre_90"/>
    <clipPath id="clippath-1">
      <path class="cls-6" d="M-2.06,143.38v118.73l89.75-3.76s-9.69-23.5-7.29-31.31c2.4-7.81,13.08-13.07,19.44-12.54,6.37.54,13.54.54,13.54.54v-75.15l-115.45,3.49Z"/>
    </clipPath>
    <linearGradient id="Degradado_sin_nombre_90-10" data-name="Degradado sin nombre 90" x1="-3663.51" y1="165.06" x2="-3637.97" y2="165.06" gradientTransform="translate(-3561.79) rotate(-180) scale(1 -1)" xlink:href="#Degradado_sin_nombre_90"/>
    <linearGradient id="Degradado_sin_nombre_90-11" data-name="Degradado sin nombre 90" x1="27.56" y1="199.3" x2="33.72" y2="199.3" xlink:href="#Degradado_sin_nombre_90"/>
    <linearGradient id="Degradado_sin_nombre_90-12" data-name="Degradado sin nombre 90" x1="27.56" y1="217.26" x2="33.72" y2="217.26" xlink:href="#Degradado_sin_nombre_90"/>
    <linearGradient id="Degradado_sin_nombre_90-13" data-name="Degradado sin nombre 90" x1="27.56" y1="233.87" x2="33.72" y2="233.87" xlink:href="#Degradado_sin_nombre_90"/>
    <linearGradient id="Degradado_sin_nombre_90-14" data-name="Degradado sin nombre 90" x1="39.27" y1="182.64" x2="88.04" y2="143.13" xlink:href="#Degradado_sin_nombre_90"/>
  </defs>
  <path class="cls-15" d="M285.81,137.92V62c0-9.04-7.35-16.39-16.39-16.39h-37.44c2.09-2.15,3.39-5.08,3.39-8.3,0-6.57-5.34-11.91-11.91-11.91h-42.65c-6.57,0-11.91,5.34-11.91,11.91,0,3.23,1.3,6.16,3.39,8.3h-37.44c-9.04,0-16.39,7.35-16.39,16.39v75.92c0,9.04,7.35,16.39,16.39,16.39h9.32c-1.53,1.99-2.45,4.49-2.45,7.22,0,3.27,1.36,6.23,3.53,8.35h-9.5c-6.77,0-12.28,5.51-12.28,12.28v17.22c0,6.77,5.51,12.28,12.28,12.28h137.75c6.77,0,12.28-5.51,12.28-12.28v-17.22c0-6.77-5.51-12.28-12.28-12.28h-14.53c2.18-2.14,3.55-5.12,3.55-8.45,0-2.68-.91-5.15-2.43-7.12h9.31c9.04,0,16.39-7.35,16.39-16.39Z"/>
  <rect class="cls-19" x="122" y="48.28" width="160.29" height="101.65" rx="12.87" ry="12.87"/>
  <g class="cls-25">
    <g>
      <ellipse class="cls-22" cx="202.15" cy="88.12" rx="18.99" ry="19.3"/>
      <path class="cls-21" d="M166.85,148.12c0,20.89,15.8,22.6,35.3,22.6s35.3-1.71,35.3-22.6-15.8-37.83-35.3-37.83-35.3,16.94-35.3,37.83Z"/>
    </g>
  </g>
  <rect class="cls-7" x="145.26" y="152.42" width="113.77" height="16.42" rx="8.16" ry="8.16"/>
  <g>
    <rect class="cls-10" x="172.43" y="28.07" width="59.42" height="16.78" rx="8.39" ry="8.39"/>
    <ellipse class="cls-13" cx="201.34" cy="36.46" rx="5.84" ry="5.59"/>
  </g>
  <rect class="cls-20" x="127.02" y="172.55" width="155.27" height="34.74" rx="8.76" ry="8.76"/>
  <g>
    <g>
      <path class="cls-14" d="M82.39,121.57c-31.66,9.56-54.87,40.71-54.87,77.7,0,44.59,33.73,48.24,75.34,48.24s75.34-3.65,75.34-48.24c0-36.99-23.21-68.14-54.87-77.7-6.14,3.2-13.1,5.01-20.46,5.01s-14.32-1.82-20.46-5.01Z"/>
      <path class="cls-13" d="M128.33,118.53c-.76.53-1.54,1.05-2.34,1.53,31.51,10.56,54.43,42.07,54.43,79.2,0,21.37-7.63,35.39-23.34,42.86-14.77,7.03-35.74,7.62-54.23,7.62s-39.46-.59-54.23-7.62c-15.71-7.47-23.34-21.49-23.34-42.86,0-37.13,22.92-68.65,54.43-79.2-.8-.49-1.57-1-2.34-1.53-31.55,11.38-54.33,43.26-54.33,80.73,0,22.32,8.05,37,24.62,44.88,15.19,7.23,36.46,7.83,55.19,7.83s40-.61,55.19-7.83c16.57-7.88,24.62-22.56,24.62-44.88,0-37.47-22.78-69.35-54.33-80.73Z"/>
      <path class="cls-13" d="M178.18,199.27c0,44.59-33.73,48.24-75.34,48.24s-75.34-3.65-75.34-48.24c0-36.99,23.21-68.14,54.87-77.7-.91-.47-1.81-.97-2.68-1.5-31.51,10.56-54.43,42.07-54.43,79.2,0,21.37,7.63,35.39,23.34,42.86,14.77,7.03,35.74,7.62,54.23,7.62s39.46-.59,54.23-7.62c15.71-7.47,23.34-21.49,23.34-42.86,0-37.13-22.92-68.65-54.43-79.2-.87.53-1.77,1.03-2.68,1.5,31.66,9.56,54.87,40.71,54.87,77.7Z"/>
      <path class="cls-9" d="M122.82,116.76c12.28-7.08,20.57-20.47,20.57-35.84,0-22.75-18.15-41.19-40.54-41.19s-40.54,18.44-40.54,41.19c0,15.37,8.29,28.77,20.57,35.84,6.38-1.76,13.08-2.7,19.97-2.7s13.58.94,19.97,2.7Z"/>
      <path class="cls-12" d="M116.17,119.82c-4.33-.83-8.78-1.29-13.33-1.29s-9,.46-13.33,1.29c4.18,1.48,8.66,2.29,13.33,2.29s9.15-.81,13.33-2.29Z"/>
      <path class="cls-11" d="M116.17,119.82c-4.33-.83-8.78-1.29-13.33-1.29s-9,.46-13.33,1.29c4.18,1.48,8.66,2.29,13.33,2.29s9.15-.81,13.33-2.29Z"/>
      <path class="cls-13" d="M119.82,118.32c1.02-.48,2.02-1,2.99-1.56-6.38-1.76-13.08-2.7-19.97-2.7s-13.58.94-19.97,2.7c.97.56,1.97,1.08,2.99,1.56,5.47-1.31,11.14-2.03,16.98-2.03s11.51.71,16.98,2.03Z"/>
      <path class="cls-3" d="M119.82,118.32c1.02-.48,2.02-1,2.99-1.56-6.38-1.76-13.08-2.7-19.97-2.7s-13.58.94-19.97,2.7c.97.56,1.97,1.08,2.99,1.56,5.47-1.31,11.14-2.03,16.98-2.03s11.51.71,16.98,2.03Z"/>
      <path class="cls-13" d="M116.17,119.82c1.25-.44,2.46-.94,3.65-1.5-5.47-1.31-11.14-2.03-16.98-2.03s-11.51.71-16.98,2.03c1.19.56,2.4,1.06,3.65,1.5,4.33-.83,8.78-1.29,13.33-1.29s9,.46,13.33,1.29Z"/>
      <path class="cls-8" d="M116.17,119.82c1.25-.44,2.46-.94,3.65-1.5-5.47-1.31-11.14-2.03-16.98-2.03s-11.51.71-16.98,2.03c1.19.56,2.4,1.06,3.65,1.5,4.33-.83,8.78-1.29,13.33-1.29s9,.46,13.33,1.29Z"/>
      <path class="cls-13" d="M60.07,80.91c0-23.95,19.19-43.43,42.78-43.43s42.77,19.48,42.77,43.43c0,15.43-7.98,29-19.96,36.71.9.29,1.78.59,2.66.91,11.79-8.24,19.53-22.03,19.53-37.62,0-25.18-20.19-45.67-45.01-45.67s-45.01,20.49-45.01,45.67c0,15.59,7.75,29.38,19.53,37.62.88-.32,1.77-.63,2.66-.91-11.98-7.71-19.96-21.28-19.96-36.71Z"/>
      <path class="cls-13" d="M85.65,120.67c-1.1.28-2.19.58-3.27.9,6.14,3.2,13.1,5.01,20.46,5.01s14.32-1.82,20.46-5.01c-1.08-.33-2.17-.63-3.27-.9-5.27,2.36-11.08,3.68-17.19,3.68s-11.93-1.32-17.19-3.68Z"/>
      <path class="cls-13" d="M123.07,119.17c.98.28,1.96.57,2.92.89.8-.49,1.57-1,2.34-1.53-.88-.32-1.77-.63-2.66-.91-.85.54-1.71,1.07-2.59,1.55Z"/>
      <path class="cls-13" d="M82.62,119.17c-.89-.48-1.75-1.01-2.59-1.55-.9.29-1.78.59-2.66.91.76.53,1.54,1.05,2.34,1.53.96-.32,1.94-.61,2.92-.89Z"/>
      <path class="cls-13" d="M85.65,120.67c-1.03-.46-2.04-.96-3.03-1.5-.98.28-1.96.57-2.92.89.87.53,1.77,1.03,2.68,1.5,1.08-.33,2.17-.63,3.27-.9Z"/>
      <path class="cls-13" d="M120.04,120.67c1.1.28,2.19.58,3.27.9.91-.47,1.81-.97,2.68-1.5-.96-.32-1.94-.61-2.92-.89-.99.54-2,1.04-3.03,1.5Z"/>
      <path class="cls-13" d="M62.31,80.91c0-22.75,18.15-41.19,40.54-41.19s40.54,18.44,40.54,41.19c0,15.37-8.29,28.77-20.57,35.84.96.26,1.9.56,2.85.87,11.98-7.71,19.96-21.28,19.96-36.71,0-23.95-19.19-43.43-42.77-43.43s-42.78,19.48-42.78,43.43c0,15.43,7.98,29,19.96,36.71.94-.3,1.89-.6,2.85-.87-12.28-7.08-20.57-20.47-20.57-35.84Z"/>
      <path class="cls-13" d="M102.85,122.11c-4.67,0-9.15-.81-13.33-2.29-1.3.25-2.59.53-3.87.85,5.27,2.36,11.08,3.68,17.19,3.68s11.93-1.32,17.19-3.68c-1.28-.32-2.57-.6-3.87-.85-4.18,1.48-8.66,2.29-13.33,2.29Z"/>
      <path class="cls-13" d="M82.88,116.76c-.96.26-1.9.56-2.85.87.85.54,1.71,1.07,2.59,1.55,1.07-.31,2.16-.59,3.25-.85-1.02-.48-2.02-1-2.99-1.56Z"/>
      <path class="cls-13" d="M119.82,118.32c1.09.26,2.18.54,3.25.85.89-.48,1.75-1.01,2.59-1.55-.94-.3-1.89-.6-2.85-.87-.97.56-1.97,1.08-2.99,1.56Z"/>
      <path class="cls-13" d="M116.17,119.82c1.3.25,2.59.53,3.87.85,1.03-.46,2.04-.96,3.03-1.5-1.07-.31-2.16-.59-3.25-.85-1.19.56-2.4,1.06-3.65,1.5Z"/>
      <path class="cls-13" d="M89.52,119.82c-1.25-.44-2.46-.94-3.65-1.5-1.09.26-2.18.54-3.25.85.99.54,2,1.04,3.03,1.5,1.28-.32,2.57-.6,3.87-.85Z"/>
    </g>
    <g>
      <ellipse class="cls-13" cx="80.41" cy="143.86" rx="9.12" ry="8.2"/>
      <path class="cls-17" d="M78.62,138.81s-3.17-7.09-6.34-14.17"/>
      <path class="cls-18" d="M142.38,141.8s1.82-4.9,3.48-12.47"/>
      <g>
        <path class="cls-13" d="M140.38,175.87h0c-2.56-.48-4.2-2.73-3.67-5.03l.63-2.73c.53-2.3,3.04-3.78,5.6-3.3h0c2.56.48,4.2,2.73,3.67,5.03l-.63,2.73c-.53,2.3-3.04,3.78-5.6,3.3Z"/>
        <path class="cls-13" d="M119.12,168.85l-1.14-.47c-2.06-.85-2.97-3.03-2.03-4.89l1.81-3.56c.94-1.85,3.38-2.67,5.44-1.82l1.14.47c2.06.85,2.97,3.03,2.03,4.89l-1.81,3.56c-.94,1.85-3.38,2.67-5.44,1.82Z"/>
        <path class="cls-17" d="M118.29,163.59c-.67-2.98-.45-6.24.8-9.42,3.36-8.49,12.88-13.2,21.27-10.51,8.39,2.68,12.47,11.73,9.11,20.22-1.26,3.18-3.38,5.83-5.99,7.76"/>
      </g>
    </g>
  </g>
  <g class="cls-24">
    <g>
      <g>
        <g>
          <path class="cls-16" d="M102.24,189.11v-11.32s-23.04-27.32-23.04-27.32H22.87c-3.45,0-6.24,3.31-6.24,7.38v87.84c0,4.94,3.53,8.94,7.88,8.94h77.21l.52-65.53Z"/>
          <path class="cls-23" d="M101.71,179.36h-25.52v-28.6h1.43c.61,0,.68.1,1.56,1.07.88.97,22.09,25.26,22.09,25.26,0,0,.3.28.4.82s.04,1.46.04,1.46Z"/>
        </g>
        <g>
          <rect class="cls-7" x="28.38" y="195.8" width="57.15" height="6.99" rx="3.48" ry="3.48"/>
          <ellipse class="cls-2" cx="30.64" cy="199.3" rx="3.08" ry="3.5"/>
        </g>
        <g>
          <rect class="cls-7" x="28.38" y="213.77" width="57.64" height="6.99" rx="3.48" ry="3.48"/>
          <ellipse class="cls-1" cx="30.64" cy="217.26" rx="3.08" ry="3.5"/>
        </g>
        <g>
          <rect class="cls-7" x="28.38" y="230.38" width="57.64" height="6.99" rx="3.48" ry="3.48"/>
          <ellipse class="cls-4" cx="30.64" cy="233.87" rx="3.08" ry="3.5"/>
        </g>
      </g>
      <path class="cls-5" d="M62.5,166.83h-5.25v-5.31c0-1.47-1.18-2.67-2.63-2.67h-7.09c-1.45,0-2.63,1.19-2.63,2.67v5.31h-5.25c-1.45,0-2.63,1.19-2.63,2.67v7.18c0,1.47,1.18,2.67,2.63,2.67h5.25v5.31c0,1.47,1.18,2.67,2.63,2.67h7.09c1.45,0,2.63-1.19,2.63-2.67v-5.31h5.25c1.45,0,2.63-1.19,2.63-2.67v-7.18c0-1.47-1.18-2.67-2.63-2.67Z"/>
    </g>
  </g>
  <path class="cls-13" d="M180.06,188.21c-.06,2.46,4.07,26.69-14.98,43.74-13.55,12.13-32.69,16.2-56.06,16.2-4.78,0-9.76-.26-14.93-.77-8.57-.85-14.84-8.57-14-17.24.84-8.67,8.48-15.02,17.04-14.17,21.19,2.1,37.36-1.26,46.8-9.7,6.62-5.93,8.16-12.92,9.22-16.29.76-2.43-3-3.81-3.98-.95-1.04,3.04-2.57,9.44-8.41,14.45-8.61,7.37-23.55,10.24-43.22,8.3-10.85-1.07-20.52,6.96-21.58,17.95-1.06,10.99,6.88,20.77,17.73,21.84,5.31.53,10.42.79,15.34.79,24.41,0,43.98-6.47,58.31-19.3,20.36-18.23,12.72-44.86,12.72-44.86Z"/>
</svg>