<?xml version="1.0" encoding="UTF-8"?>
<svg id="Capa_2" data-name="Capa 2" xmlns="http://www.w3.org/2000/svg" xmlns:xlink="http://www.w3.org/1999/xlink" viewBox="0 0 245.39 262.79">
  <defs>
    <style>
      .cls-1 {
        stroke-width: 5.63px;
      }

      .cls-1, .cls-2, .cls-3, .cls-4 {
        stroke: #fff;
      }

      .cls-1, .cls-2, .cls-5 {
        fill: #fff;
      }

      .cls-1, .cls-3 {
        stroke-miterlimit: 10;
      }

      .cls-6 {
        fill: url(#Degradado_sin_nombre_4-4);
      }

      .cls-6, .cls-7, .cls-8, .cls-9, .cls-10, .cls-11, .cls-5, .cls-12 {
        stroke-width: 0px;
      }

      .cls-7 {
        fill: url(#Degradado_sin_nombre_4-2);
      }

      .cls-2 {
        stroke-width: 11.28px;
      }

      .cls-2, .cls-4 {
        stroke-linecap: round;
        stroke-linejoin: round;
      }

      .cls-8, .cls-3 {
        fill: #235ba1;
      }

      .cls-9 {
        fill: url(#Degradado_sin_nombre_4);
      }

      .cls-10 {
        fill: url(#Degradado_sin_nombre_4-3);
      }

      .cls-3 {
        stroke-width: 1.7px;
      }

      .cls-11 {
        fill: url(#Degradado_sin_nombre_4-6);
      }

      .cls-4 {
        fill: none;
        stroke-width: 20.28px;
      }

      .cls-12 {
        fill: url(#Degradado_sin_nombre_4-5);
      }
    </style>
    <linearGradient id="Degradado_sin_nombre_4" data-name="Degradado sin nombre 4" x1="-11739.85" y1="38.79" x2="-11783.32" y2="171.62" gradientTransform="translate(11858.23)" gradientUnits="userSpaceOnUse">
      <stop offset="0" stop-color="#16ecff"/>
      <stop offset="1" stop-color="#1271cf"/>
    </linearGradient>
    <linearGradient id="Degradado_sin_nombre_4-2" data-name="Degradado sin nombre 4" x1="1479.52" y1="119.67" x2="1559.9" y2="119.67" gradientTransform="translate(1603.96) rotate(-180) scale(.99 -1)" xlink:href="#Degradado_sin_nombre_4"/>
    <linearGradient id="Degradado_sin_nombre_4-3" data-name="Degradado sin nombre 4" x1="5.63" y1="188.47" x2="111.4" y2="188.47" gradientTransform="matrix(1,0,0,1,0,0)" xlink:href="#Degradado_sin_nombre_4"/>
    <linearGradient id="Degradado_sin_nombre_4-4" data-name="Degradado sin nombre 4" x1="32.29" y1="119.55" x2="83.14" y2="119.55" gradientTransform="matrix(1,0,0,1,0,0)" xlink:href="#Degradado_sin_nombre_4"/>
    <linearGradient id="Degradado_sin_nombre_4-5" data-name="Degradado sin nombre 4" x1="87.92" y1="245.25" x2="218.38" y2="235.92" gradientTransform="matrix(1,0,0,1,0,0)" xlink:href="#Degradado_sin_nombre_4"/>
    <linearGradient id="Degradado_sin_nombre_4-6" data-name="Degradado sin nombre 4" x1="86.7" y1="228.25" x2="217.16" y2="218.92" gradientTransform="matrix(1,0,0,1,0,0)" xlink:href="#Degradado_sin_nombre_4"/>
  </defs>
  <g id="ICONOS">
    <g>
      <g>
        <path class="cls-2" d="M148.01,6.88c4.84-1.79,10.17-1.64,14.9.41l76.84,33.41-103.3,37.93v8.27h0v-8.27l103.3-37.93v115.73c0,3.24-2,6.13-4.99,7.23l-9.49,3.48-64.93,23.84-23.89,8.77v-107.04h0v107.04l-32.56-15.49-24.7-11.73-15.61-7.45c-4.18-1.99-6.85-6.25-6.85-10.93V40.71L148.01,6.88Z"/>
        <g>
          <path class="cls-9" d="M234.76,163l-98.31,36.01v-120.85l103.3-37.84v115.47c0,3.23-2,6.11-4.99,7.21Z"/>
          <path class="cls-3" d="M192.8,179.28l-32.46,11.89v-32.03c0-3.57,2.21-6.75,5.52-7.97l26.94-9.87v37.98Z"/>
          <path class="cls-3" d="M225.27,167.33l-32.46,11.89v-37.98l26.08-9.55c3.1-1.14,6.38,1.19,6.38,4.54v31.11Z"/>
          <path class="cls-7" d="M63.57,164.42l72.87,34.59v-120.85S56.73,40.32,56.73,40.32v113.19c0,4.67,2.67,8.93,6.85,10.91Z"/>
          <g>
            <path class="cls-5" d="M201.16,119.93l-12.59,3.84c-1.39.42-2.52-.46-2.52-1.98v-36.68c0-1.52,1.13-3.1,2.52-3.52l12.59-3.84c1.39-.42,2.52.46,2.52,1.98v36.68c0,1.52-1.13,3.1-2.52,3.52Z"/>
            <path class="cls-5" d="M175.53,113.28v-13.24c0-1.52,1.13-3.1,2.52-3.52l33.62-10.25c1.39-.42,2.52.46,2.52,1.98v13.24c0,1.52-1.13,3.1-2.52,3.52l-33.62,10.25c-1.39.42-2.52-.46-2.52-1.98Z"/>
          </g>
          <path class="cls-8" d="M56.73,40.32l79.72,37.84,103.3-37.84L162.91,6.98c-4.73-2.05-10.06-2.2-14.9-.41L56.73,40.32Z"/>
          <polygon class="cls-5" points="239.75 47.71 136.45 86.41 56.73 47.6 56.73 52.97 136.45 92.22 239.75 53.3 239.75 47.71"/>
        </g>
      </g>
      <g>
        <circle class="cls-5" cx="57.72" cy="119.55" r="37.18"/>
        <g>
          <g>
            <path class="cls-10" d="M58.52,233.89c-21.06,0-52.88,0-52.88-35.39,0-30.57,23.72-55.44,52.88-55.44s52.88,24.87,52.88,55.44c0,35.39-31.82,35.39-52.88,35.39Z"/>
            <path class="cls-5" d="M58.52,148.69c26.1,0,47.25,22.3,47.25,49.81s-21.15,29.76-47.25,29.76-47.25-2.25-47.25-29.76,21.15-49.81,47.25-49.81M58.52,137.42c-32.27,0-58.52,27.4-58.52,61.07,0,17.18,6.84,29.09,20.33,35.4,10.01,4.68,22.03,5.63,38.19,5.63s28.17-.94,38.19-5.63c13.49-6.31,20.33-18.22,20.33-35.4,0-33.68-26.25-61.07-58.52-61.07h0Z"/>
          </g>
          <path class="cls-6" d="M57.72,144.96c14.04,0,25.42-11.38,25.42-25.41s-11.38-25.41-25.42-25.41-25.42,11.38-25.42,25.41,11.38,25.41,25.42,25.41Z"/>
        </g>
      </g>
      <g>
        <g>
          <path class="cls-4" d="M191.51,226.95c-12.64,14.4-30.73,24.03-51.35,25.51-16.34,1.17-31.83-2.95-44.8-10.91"/>
          <polygon class="cls-1" points="163.72 220.18 208.49 193.49 209.23 245.61 163.72 220.18"/>
        </g>
        <g>
          <path class="cls-12" d="M134.24,259.92c-15.25,0-30.04-4.16-43.11-12.18-3.42-2.1-4.49-6.57-2.39-9.99,2.1-3.42,6.57-4.49,9.99-2.39,12.18,7.47,26.18,10.89,40.49,9.86,18.02-1.29,34.5-9.48,46.41-23.05,2.64-3.01,7.23-3.32,10.25-.67,3.01,2.65,3.32,7.23.67,10.25-14.45,16.47-34.44,26.4-56.29,27.96-2.01.14-4.02.21-6.01.21Z"/>
          <polygon class="cls-11" points="163.29 220.18 208.06 193.49 208.81 245.61 163.29 220.18"/>
        </g>
      </g>
    </g>
  </g>
</svg>