<?xml version="1.0" encoding="UTF-8"?>
<svg id="Capa_2" data-name="Capa 2" xmlns="http://www.w3.org/2000/svg" xmlns:xlink="http://www.w3.org/1999/xlink" viewBox="0 0 264.57 255.61">
  <defs>
    <style>
      .cls-1 {
        stroke: #fff;
        stroke-linecap: round;
        stroke-width: 6.53px;
      }

      .cls-1, .cls-2 {
        fill: none;
        stroke-miterlimit: 10;
      }

      .cls-3 {
        fill: #235ba1;
      }

      .cls-3, .cls-4, .cls-5, .cls-6, .cls-7 {
        stroke-width: 0px;
      }

      .cls-4 {
        fill: url(#Degradado_sin_nombre_4);
      }

      .cls-5 {
        fill: #14b7eb;
      }

      .cls-2 {
        stroke: #35a8e0;
        stroke-width: 5.14px;
      }

      .cls-6 {
        opacity: .28;
      }

      .cls-6, .cls-7 {
        fill: #fff;
      }
    </style>
    <linearGradient id="Degradado_sin_nombre_4" data-name="Degradado sin nombre 4" x1="-28.33" y1="-165.87" x2="249.16" y2="281.7" gradientUnits="userSpaceOnUse">
      <stop offset="0" stop-color="#16ecff"/>
      <stop offset="1" stop-color="#1271cf"/>
    </linearGradient>
  </defs>
  <g id="ICONOS">
    <g>
      <path class="cls-1" d="M117.56,135.21H46.02c-5.03,0-9.1-4.19-9.1-9.36V47.56c0-5.17,4.08-9.36,9.1-9.36h89.47c5.03,0,9.1,4.19,9.1,9.36v35.71"/>
      <g>
        <path class="cls-7" d="M246.09,0H18.48C8.27,0,0,9.21,0,20.56v145.24c0,11.36,8.27,20.56,18.48,20.56h227.62c10.2,0,18.48-9.21,18.48-20.56V20.56c0-11.36-8.27-20.56-18.48-20.56ZM78.29,61.47h8.89c3.54,0,6.41,3.19,6.41,7.13v13.73c0,3.94-2.87,7.13-6.41,7.13h-43.44c-3.54,0-6.41-3.19-6.41-7.13v-13.73c0-3.94,2.87-7.13,6.41-7.13h34.55Z"/>
        <path class="cls-4" d="M233.11,14.97H31.46c-8.85,0-16.02,7.87-16.02,17.58v121.26c0,9.71,7.17,17.58,16.02,17.58h201.65c8.85,0,16.02-7.87,16.02-17.58V32.55c0-9.71-7.17-17.58-16.02-17.58Z"/>
        <g>
          <path class="cls-3" d="M84.44,208.22c-.85,0-1.71-.07-2.54-.2-.83-.14-1.64-.34-2.41-.6-.77-.26-1.52-.58-2.22-.96-.35-.19-.69-.39-1.02-.61-.69-.45-1.31-.95-1.88-1.5-.9-.87-1.63-1.84-2.19-2.9-.19-.36-.37-.75-.52-1.13-.31-.79-.52-1.62-.63-2.45-.06-.44-.08-.88-.08-1.31,0-2.51.9-4.9,2.6-6.91.51-.6,1.09-1.16,1.72-1.67.93-.74,1.97-1.36,3.09-1.85.46-.2.94-.38,1.43-.53,1.49-.47,3.05-.7,4.65-.7h95.69c.53,0,1.07.03,1.6.08,1.04.1,2.07.32,3.05.62.49.15.97.33,1.43.53,1.12.48,2.16,1.1,3.08,1.84.64.51,1.22,1.08,1.73,1.67,1.7,2,2.59,4.39,2.59,6.9,0,.43-.03.86-.08,1.29-.11.85-.32,1.67-.63,2.47-.15.39-.33.77-.52,1.14-.56,1.05-1.29,2.02-2.19,2.89-.57.55-1.19,1.05-1.87,1.49-.34.22-.69.43-1.04.62-.69.37-1.44.7-2.21.96-1.58.53-3.24.8-4.94.8h-95.69Z"/>
          <path class="cls-7" d="M180.13,189.36c.39,0,.77.02,1.15.06.75.08,1.48.23,2.16.44.34.11.67.23.99.37.77.33,1.47.75,2.08,1.24.41.33.78.68,1.1,1.07.97,1.15,1.54,2.53,1.54,4.03,0,.25-.02.49-.05.74-.06.48-.18.95-.36,1.4-.09.23-.19.45-.3.66-.34.65-.8,1.24-1.35,1.78-.37.36-.78.68-1.22.98-.22.15-.45.29-.69.41-.48.26-.99.48-1.53.66-1.08.36-2.27.57-3.51.57h-95.69c-.62,0-1.23-.05-1.82-.15s-1.15-.24-1.69-.42c-.54-.18-1.05-.41-1.53-.66-.24-.13-.47-.27-.69-.41-.45-.29-.86-.62-1.22-.98-.55-.53-1.01-1.13-1.35-1.78-.11-.22-.22-.44-.3-.66-.18-.45-.3-.92-.36-1.4-.03-.24-.05-.49-.05-.74,0-1.49.57-2.88,1.54-4.03.32-.38.69-.74,1.1-1.07.61-.49,1.31-.91,2.08-1.24.32-.14.65-.26.99-.37,1.02-.32,2.14-.5,3.31-.5h95.69M180.13,180.44h-95.69c-2.05,0-4.06.31-5.98.91-.64.2-1.26.43-1.86.69-1.48.64-2.86,1.47-4.09,2.45-.86.69-1.65,1.46-2.35,2.28-2.35,2.78-3.65,6.25-3.65,9.78,0,.62.04,1.25.12,1.86.15,1.2.45,2.38.9,3.52.21.54.46,1.08.73,1.6.78,1.47,1.8,2.82,3.03,4.01.76.74,1.61,1.41,2.52,2.01.44.29.9.56,1.37.82.92.5,1.9.92,2.91,1.26,1.01.34,2.05.6,3.11.77,1.07.17,2.16.26,3.26.26h95.69c2.19,0,4.33-.35,6.36-1.03,1.01-.34,1.99-.77,2.91-1.26.47-.25.93-.53,1.37-.82.9-.6,1.75-1.27,2.52-2.01,1.23-1.19,2.25-2.54,3.03-4.01.28-.52.52-1.06.73-1.6.44-1.13.74-2.32.9-3.52.08-.62.12-1.24.12-1.86,0-3.53-1.3-7.01-3.65-9.79-.7-.83-1.49-1.59-2.35-2.28-1.23-.98-2.61-1.81-4.09-2.45-.6-.26-1.23-.49-1.86-.69-1.27-.4-2.59-.67-3.94-.81-.68-.07-1.37-.1-2.05-.1h0Z"/>
        </g>
        <g>
          <path class="cls-3" d="M37.45,251.16c-5.05,0-9.45-2.42-11.46-6.33-1.64-3.18-1.36-6.85.75-9.82l15.45-21.74c2.26-3.19,6.27-5.09,10.71-5.09h158.77c4.44,0,8.44,1.9,10.71,5.09l15.45,21.74c2.11,2.97,2.39,6.64.75,9.82-2.01,3.9-6.41,6.33-11.46,6.33H37.45Z"/>
          <path class="cls-7" d="M211.67,212.63c2.95,0,5.66,1.23,7.07,3.22l15.45,21.74c2.92,4.11-.97,9.11-7.07,9.11H37.45c-6.11,0-9.99-5-7.07-9.11l15.45-21.74c1.41-1.98,4.12-3.22,7.07-3.22h158.77M211.67,203.72H52.9c-5.88,0-11.24,2.6-14.34,6.97l-15.45,21.74c-3.1,4.36-3.5,9.76-1.08,14.45,2.78,5.39,8.69,8.74,15.42,8.74h189.67c6.73,0,12.64-3.35,15.42-8.74,2.42-4.69,2.02-10.09-1.08-14.45l-15.45-21.74c-3.1-4.36-8.46-6.97-14.34-6.97h0Z"/>
        </g>
        <rect class="cls-2" x="7.85" y="6.37" width="248.86" height="173.64" rx="17.69" ry="17.69"/>
      </g>
      <rect class="cls-6" x="86.87" y="56.67" width="42.24" height="5.38" rx="1.94" ry="1.94"/>
      <rect class="cls-6" x="86.87" y="73.51" width="42.24" height="5.38" rx="1.94" ry="1.94"/>
      <rect class="cls-6" x="50.1" y="90.35" width="79.09" height="5.38" rx="2.65" ry="2.65"/>
      <rect class="cls-6" x="50.1" y="109.63" width="79.09" height="5.38" rx="2.65" ry="2.65"/>
      <rect class="cls-6" x="50.1" y="56.01" width="27.83" height="23.97" rx="4.46" ry="4.46"/>
      <g>
        <ellipse class="cls-7" cx="185.27" cy="73.81" rx="21.47" ry="22.07"/>
        <path class="cls-7" d="M172.55,103.54h20.98c5.98,0,10.83,4.85,10.83,10.83v53.93c0,3.86-3.13,6.99-6.99,6.99h-30.21c-3,0-5.44-2.44-5.44-5.44v-55.48c0-5.98,4.85-10.83,10.83-10.83Z"/>
        <path class="cls-7" d="M208.98,103.54h.28c8.36,0,15.14,6.78,15.14,15.14v41.54c0,4.18-3.39,7.57-7.57,7.57h-.28c-4.18,0-7.57-3.39-7.57-7.57v-56.69h0Z"/>
        <path class="cls-7" d="M157.65,103.54h.13v39.1c0,3.52-2.85,6.37-6.37,6.37h-2.68c-3.52,0-6.37-2.85-6.37-6.37v-23.81c0-8.44,6.85-15.29,15.29-15.29Z"/>
        <g>
          <path class="cls-7" d="M135.03,129.23c-.51,0-1.01-.18-1.41-.5l-54.1-43.98c-.96-.78-1.12-2.22-.37-3.2.43-.56,1.08-.88,1.78-.88.51,0,1.01.18,1.41.5l54.1,43.98c.96.78,1.13,2.22.37,3.2-.43.56-1.08.88-1.78.88Z"/>
          <path class="cls-5" d="M80.94,81.67c.27,0,.54.09.77.28l54.1,43.98c.54.44.63,1.24.2,1.8-.25.32-.61.49-.98.49-.27,0-.54-.09-.77-.28l-54.1-43.98c-.54-.44-.63-1.24-.2-1.8.25-.32.61-.49.98-.49M80.94,79.65h0c-1.02,0-1.96.47-2.58,1.28-1.09,1.41-.85,3.48.53,4.61l54.1,43.98c.58.47,1.31.73,2.05.73,1.02,0,1.96-.47,2.58-1.28,1.09-1.42.85-3.48-.53-4.61l-54.1-43.98c-.58-.47-1.31-.73-2.05-.73h0Z"/>
        </g>
        <path class="cls-7" d="M156.28,146.19h0c-2.9,3.77-8.22,4.41-11.89,1.43l-22.8-18.54c-3.01-2.45-3.52-6.94-1.14-10.04l.94-1.22c2.38-3.1,6.76-3.62,9.77-1.17l23.99,19.51c3.01,2.45,3.52,6.94,1.14,10.04Z"/>
        <rect class="cls-7" x="188.91" y="103.54" width="25.29" height="20.66" rx="5.5" ry="5.5"/>
        <rect class="cls-7" x="151.52" y="103.54" width="33.17" height="20.66" rx="6.3" ry="6.3"/>
      </g>
    </g>
  </g>
</svg>