<?xml version="1.0" encoding="UTF-8"?>
<svg id="Capa_2" data-name="Capa 2" xmlns="http://www.w3.org/2000/svg" xmlns:xlink="http://www.w3.org/1999/xlink" viewBox="0 0 258.09 257.93">
  <defs>
    <style>
      .cls-1 {
        fill: url(#Degradado_sin_nombre_3);
        stroke: #fff;
        stroke-miterlimit: 10;
        stroke-width: 8.23px;
      }

      .cls-2 {
        fill: #fff;
        stroke-width: 0px;
      }
    </style>
    <radialGradient id="Degradado_sin_nombre_3" data-name="Degradado sin nombre 3" cx="14.95" cy="160.13" fx="14.95" fy="160.13" r="211.78" gradientTransform="translate(-.65)" gradientUnits="userSpaceOnUse">
      <stop offset="0" stop-color="#16ecff"/>
      <stop offset="1" stop-color="#1271cf"/>
    </radialGradient>
  </defs>
  <g id="ICONOS">
    <g>
      <ellipse class="cls-1" cx="129.04" cy="128.96" rx="124.93" ry="124.85"/>
      <g>
        <path class="cls-2" d="M70.02,94.33h67.12c10.26,0,18.59,8.33,18.59,18.59v45.72c0,2.73-2.22,4.94-4.94,4.94h-66.22c-10.76,0-19.49-8.73-19.49-19.49v-44.82c0-2.73,2.22-4.94,4.94-4.94Z"/>
        <path class="cls-2" d="M160.63,118.55v21.09c0,1.5.7,2.92,1.88,3.83l24.5,18.94c2.45,1.89,6,.15,6-2.94v-60.08c0-3.06-3.49-4.81-5.95-2.98l-24.48,18.26c-1.23.91-1.95,2.35-1.95,3.88Z"/>
      </g>
    </g>
  </g>
</svg>