<?xml version="1.0" encoding="UTF-8"?>
<svg id="Capa_2" data-name="Capa 2" xmlns="http://www.w3.org/2000/svg" version="1.1" xmlns:xlink="http://www.w3.org/1999/xlink" viewBox="0 0 248.5 248.3">
  <defs>
    <style>
      .cls-1 {
        fill: url(#Degradado_sin_nombre_3);
      }

      .cls-1, .cls-2, .cls-3, .cls-4, .cls-5, .cls-6, .cls-7, .cls-8 {
        stroke-width: 0px;
      }

      .cls-2 {
        opacity: .2;
      }

      .cls-2, .cls-4, .cls-8 {
        fill: #fff;
      }

      .cls-2, .cls-8 {
        isolation: isolate;
      }

      .cls-3 {
        fill: #14b7eb;
      }

      .cls-5 {
        fill: url(#Degradado_sin_nombre);
      }

      .cls-6 {
        fill: url(#Degradado_sin_nombre_2);
      }

      .cls-7 {
        fill: #235ba1;
      }

      .cls-8 {
        opacity: .4;
      }
    </style>
    <linearGradient id="Degradado_sin_nombre" data-name="Degradado sin nombre" x1="3.2" y1="123.7" x2="245.3" y2="123.7" gradientTransform="translate(0 247.9) scale(1 -1)" gradientUnits="userSpaceOnUse">
      <stop offset="0" stop-color="#16ecff"/>
      <stop offset="1" stop-color="#1271cf"/>
    </linearGradient>
    <linearGradient id="Degradado_sin_nombre_2" data-name="Degradado sin nombre 2" x1="97.1" y1="188.3" x2="112.1" y2="174.1" gradientTransform="translate(-90.6 117.8) rotate(45) scale(1 -1)" gradientUnits="userSpaceOnUse">
      <stop offset="0" stop-color="#1684ff"/>
      <stop offset="1" stop-color="#0e5aa6"/>
    </linearGradient>
    <linearGradient id="Degradado_sin_nombre_3" data-name="Degradado sin nombre 3" x1="93.1" y1="89.5" x2="173.3" y2="89.5" gradientTransform="translate(0 247.9) scale(1 -1)" gradientUnits="userSpaceOnUse">
      <stop offset="0" stop-color="#16ecff"/>
      <stop offset="1" stop-color="#1271cf"/>
    </linearGradient>
  </defs>
  <g id="ICONOS">
    <g>
      <g>
        <ellipse class="cls-4" cx="124.2" cy="124.2" rx="115" ry="114.9"/>
        <path class="cls-4" d="M124.2,248.3C55.7,248.3,0,192.6,0,124.2S55.7,0,124.2,0s124.2,55.7,124.2,124.2-55.7,124.2-124.2,124.2ZM124.2,18.4c-58.4,0-105.8,47.4-105.8,105.7s47.5,105.7,105.8,105.7,105.8-47.4,105.8-105.7S182.6,18.4,124.2,18.4Z"/>
        <path class="cls-5" d="M124.2,245.1C57.5,245.1,3.2,190.8,3.2,124.2S57.5,3.2,124.2,3.2s121,54.3,121,120.9-54.3,120.9-121,120.9ZM124.2,15.2c-60.1,0-109,48.9-109,109s48.9,109,109,109,109-48.9,109-109S184.4,15.2,124.2,15.2Z"/>
      </g>
      <g>
        <g>
          <path class="cls-4" d="M155.4,196l-16.1-18.6c8.6-7.4,13.5-18.2,13.5-29.5,0-16.7-10.6-31.5-26.3-36.9l8-23.2c25.6,8.9,42.8,33.1,42.8,60.2s-8,36-22,48.1Z"/>
          <path class="cls-3" d="M152.3,192.3l-9.8-11.3c9.6-8.4,15.2-20.4,15.2-33.2,0-18.7-11.9-35.3-29.5-41.5l4.9-14.2c23.7,8.2,39.6,30.6,39.6,55.7s-7.4,33.3-20.3,44.5Z"/>
        </g>
        <g>
          <rect class="cls-3" x="112.4" y="38.6" width="45.7" height="20.6" rx="3.4" ry="3.4" transform="translate(5 110) rotate(-45)"/>
          <path class="cls-4" d="M126.4,71.7c-1.1,0-2.2-.4-2.9-1.2l-9.7-9.7c-1.6-1.6-1.6-4.3,0-5.9l27.5-27.5c1.6-1.6,4.3-1.6,5.9,0l9.7,9.7c.8.8,1.2,1.8,1.2,2.9s-.4,2.2-1.2,2.9l-27.5,27.5c-.8.8-1.8,1.2-2.9,1.2ZM144.1,27.7c-.7,0-1.4.3-1.9.8l-27.5,27.5c-1,1-1,2.7,0,3.7l9.7,9.7c1,1,2.7,1,3.7,0l27.5-27.5c.5-.5.8-1.2.8-1.9s-.3-1.4-.8-1.9l-9.7-9.7c-.5-.5-1.2-.8-1.9-.8Z"/>
        </g>
        <g>
          <rect class="cls-6" x="68.5" y="56" width="86.5" height="34.9" rx="6" ry="6" transform="translate(-19.2 100.5) rotate(-45)"/>
          <path class="cls-4" d="M93.5,115.2c-1.9,0-3.8-.7-5.2-2.2l-16.2-16.2c-1.4-1.4-2.2-3.2-2.2-5.2s.8-3.8,2.2-5.2l52.6-52.6c2.9-2.9,7.6-2.9,10.4,0l16.2,16.2c2.9,2.9,2.9,7.6,0,10.4l-52.6,52.6c-1.4,1.4-3.3,2.2-5.2,2.2ZM130,34.4c-1.2,0-2.4.5-3.3,1.4l-52.6,52.6c-.9.9-1.4,2-1.4,3.3s.5,2.4,1.4,3.3l16.2,16.2c1.8,1.8,4.8,1.8,6.6,0l52.6-52.6c1.8-1.8,1.8-4.8,0-6.6l-16.2-16.2c-.9-.9-2.1-1.4-3.3-1.4Z"/>
        </g>
        <g>
          <rect class="cls-7" x="72.1" y="82.9" width="13.3" height="45.6" rx="5" ry="5" transform="translate(-51.7 86.6) rotate(-45)"/>
          <path class="cls-4" d="M90.1,125.1c-1.5,0-2.9-.6-3.9-1.6l-25.2-25.2c-2.2-2.2-2.2-5.7,0-7.9l2.4-2.4c2.2-2.2,5.7-2.2,7.9,0l25.2,25.2c2.2,2.2,2.2,5.7,0,7.9l-2.4,2.4c-1.1,1.1-2.5,1.6-3.9,1.6ZM67.3,87.5c-1.1,0-2.2.4-3.1,1.3l-2.4,2.4c-1.7,1.7-1.7,4.5,0,6.1l25.2,25.2c.8.8,1.9,1.3,3.1,1.3s2.3-.5,3.1-1.3l2.4-2.4c1.7-1.7,1.7-4.5,0-6.1l-25.2-25.2c-.8-.8-2-1.3-3.1-1.3Z"/>
        </g>
        <g>
          <circle class="cls-7" cx="132.4" cy="94.3" r="22.3"/>
          <path class="cls-4" d="M132.3,118c-13.1,0-23.7-10.6-23.7-23.7s10.6-23.7,23.7-23.7,23.7,10.6,23.7,23.7-10.6,23.7-23.7,23.7ZM132.3,73.4c-11.5,0-20.9,9.4-20.9,20.9s9.4,20.9,20.9,20.9,20.9-9.4,20.9-20.9-9.4-20.9-20.9-20.9Z"/>
        </g>
        <g>
          <rect class="cls-7" x="62" y="157.1" width="51.6" height="6" rx="3" ry="3"/>
          <path class="cls-4" d="M110.6,164.1h-45.6c-2.2,0-4-1.8-4-4s1.8-4,4-4h45.6c2.2,0,4,1.8,4,4s-1.8,4-4,4ZM65,158.1c-1.1,0-2,.9-2,2s.9,2,2,2h45.6c1.1,0,2-.9,2-2s-.9-2-2-2h-45.6Z"/>
        </g>
        <g>
          <path class="cls-1" d="M173.3,178.4c0-22.1-17.9-40.1-40.1-40.1s-40.1,17.9-40.1,40.1"/>
          <path class="cls-4" d="M174.6,178.4h-2.7c0-21.3-17.4-38.7-38.7-38.7s-38.7,17.4-38.7,38.7h-2.7c0-22.8,18.6-41.4,41.4-41.4s41.4,18.6,41.4,41.4Z"/>
        </g>
        <path class="cls-8" d="M159.5,178.4c0-14.6-11.8-26.3-26.3-26.3s-26.3,11.8-26.3,26.3"/>
        <g>
          <rect class="cls-7" x="54" y="176" width="135.5" height="21.4" rx="10.1" ry="10.1"/>
          <path class="cls-4" d="M179.4,198.6h-115.3c-6.3,0-11.4-5.1-11.4-11.4v-1.2c0-6.3,5.1-11.4,11.4-11.4h115.3c6.3,0,11.4,5.1,11.4,11.4v1.2c0,6.3-5.1,11.4-11.4,11.4ZM64.1,177.3c-4.9,0-8.8,4-8.8,8.8v1.2c0,4.9,4,8.8,8.8,8.8h115.3c4.9,0,8.8-4,8.8-8.8v-1.2c0-4.9-4-8.8-8.8-8.8h-115.3Z"/>
        </g>
      </g>
      <circle class="cls-2" cx="132" cy="94.3" r="9.1"/>
    </g>
  </g>
</svg>