<?xml version="1.0" encoding="UTF-8"?>
<svg id="Capa_3" data-name="Capa 3" xmlns="http://www.w3.org/2000/svg" xmlns:xlink="http://www.w3.org/1999/xlink" viewBox="0 0 300 300">
  <defs>
    <style>
      .cls-1 {
        fill: url(#Degradado_sin_nombre_90);
      }

      .cls-1, .cls-2, .cls-3, .cls-4, .cls-5, .cls-6 {
        stroke-width: 0px;
      }

      .cls-2 {
        fill: url(#Degradado_sin_nombre_90-2);
      }

      .cls-3 {
        fill: #235ba1;
      }

      .cls-4 {
        fill: url(#Degradado_sin_nombre_90-3);
      }

      .cls-5 {
        fill: #fff;
      }

      .cls-6 {
        fill: url(#Degradado_sin_nombre_90-4);
      }
    </style>
    <linearGradient id="Degradado_sin_nombre_90" data-name="Degradado sin nombre 90" x1="21.05" y1="159.17" x2="60.76" y2="223.22" gradientUnits="userSpaceOnUse">
      <stop offset="0" stop-color="#16ecff"/>
      <stop offset="1" stop-color="#1271cf"/>
    </linearGradient>
    <linearGradient id="Degradado_sin_nombre_90-2" data-name="Degradado sin nombre 90" x1="91.27" y1="141.32" x2="140.59" y2="220.86" xlink:href="#Degradado_sin_nombre_90"/>
    <linearGradient id="Degradado_sin_nombre_90-3" data-name="Degradado sin nombre 90" x1="159.14" y1="113.66" x2="223.45" y2="217.39" xlink:href="#Degradado_sin_nombre_90"/>
    <linearGradient id="Degradado_sin_nombre_90-4" data-name="Degradado sin nombre 90" x1="225.29" y1="78.95" x2="308.54" y2="213.21" xlink:href="#Degradado_sin_nombre_90"/>
  </defs>
  <rect class="cls-1" x="14.24" y="158.55" width="48.25" height="57.1" rx="10" ry="10"/>
  <path class="cls-5" d="M24.24,221.65h28.24c8.83,0,16-7.18,16-16v-37.09c0-8.83-7.18-16.01-16-16.01h-28.24c-8.83,0-16,7.18-16,16.01v37.09c0,8.83,7.18,16,16,16ZM11.24,168.55c0-7.17,5.83-13,13.01-13h28.24c7.17,0,13,5.83,13,13v37.09c0,7.17-5.83,13.01-13,13.01h-28.24c-7.17,0-13.01-5.83-13.01-13.01v-37.09Z"/>
  <path class="cls-5" d="M24.24,218.65h28.24c7.17,0,13-5.83,13-13.01v-37.09c0-7.17-5.83-13-13-13h-28.24c-7.17,0-13.01,5.83-13.01,13v37.09c0,7.17,5.83,13.01,13.01,13.01ZM14.24,168.55c0-5.53,4.48-10.01,10-10.01h28.24c5.53,0,10,4.48,10,10.01v37.09c0,5.53-4.48,10-10,10h-28.24c-5.53,0-10-4.48-10-10v-37.09Z"/>
  <rect class="cls-2" x="88.65" y="136.36" width="48.25" height="79.29" rx="11.79" ry="11.79"/>
  <path class="cls-5" d="M125.11,221.65c9.81,0,17.79-7.98,17.79-17.79v-55.71c0-9.81-7.98-17.79-17.79-17.79h-24.67c-9.81,0-17.79,7.98-17.79,17.79v55.71c0,9.81,7.98,17.79,17.79,17.79h24.67ZM85.65,203.86v-55.71c0-8.16,6.63-14.79,14.79-14.79h24.67c8.15,0,14.79,6.63,14.79,14.79v55.71c0,8.16-6.63,14.79-14.79,14.79h-24.67c-8.16,0-14.79-6.63-14.79-14.79Z"/>
  <path class="cls-5" d="M125.11,218.65c8.15,0,14.79-6.63,14.79-14.79v-55.71c0-8.16-6.63-14.79-14.79-14.79h-24.67c-8.16,0-14.79,6.63-14.79,14.79v55.71c0,8.16,6.63,14.79,14.79,14.79h24.67ZM88.65,203.86v-55.71c0-6.51,5.28-11.79,11.79-11.79h24.67c6.51,0,11.79,5.28,11.79,11.79v55.71c0,6.51-5.28,11.79-11.79,11.79h-24.67c-6.51,0-11.79-5.28-11.79-11.79Z"/>
  <rect class="cls-4" x="163.05" y="102.12" width="48.25" height="113.52" rx="14.11" ry="14.11"/>
  <path class="cls-5" d="M197.2,221.65c11.09,0,20.11-9.02,20.11-20.11v-85.31c0-11.09-9.02-20.11-20.11-20.11h-20.04c-11.09,0-20.11,9.02-20.11,20.11v85.31c0,11.09,9.02,20.11,20.11,20.11h20.04ZM160.05,201.54v-85.31c0-9.43,7.67-17.11,17.11-17.11h20.04c9.43,0,17.11,7.67,17.11,17.11v85.31c0,9.43-7.67,17.11-17.11,17.11h-20.04c-9.43,0-17.11-7.67-17.11-17.11Z"/>
  <path class="cls-5" d="M197.2,218.65c9.43,0,17.11-7.67,17.11-17.11v-85.31c0-9.43-7.67-17.11-17.11-17.11h-20.04c-9.43,0-17.11,7.67-17.11,17.11v85.31c0,9.43,7.67,17.11,17.11,17.11h20.04ZM163.05,201.54v-85.31c0-7.79,6.32-14.11,14.11-14.11h20.04c7.79,0,14.11,6.32,14.11,14.11v85.31c0,7.79-6.32,14.11-14.11,14.11h-20.04c-7.79,0-14.11-6.32-14.11-14.11Z"/>
  <rect class="cls-6" x="237.46" y="59.33" width="48.25" height="156.32" rx="16.55" ry="16.55"/>
  <path class="cls-5" d="M269.16,53.33h-15.15c-7.9,0-14.86,4.09-18.89,10.25l-2.6,5.44c-.69,2.16-1.07,4.47-1.07,6.86v123.21c0,12.44,10.12,22.55,22.55,22.55h15.15c12.44,0,22.55-10.12,22.55-22.55v-123.21c0-12.44-10.12-22.55-22.55-22.55ZM288.71,199.09c0,10.78-8.77,19.55-19.55,19.55h-15.15c-10.78,0-19.55-8.77-19.55-19.55v-123.21c0-10.78,8.77-19.55,19.55-19.55h15.15c10.78,0,19.55,8.77,19.55,19.55v123.21Z"/>
  <path class="cls-5" d="M269.16,56.33h-15.15c-10.78,0-19.55,8.77-19.55,19.55v123.21c0,10.78,8.77,19.55,19.55,19.55h15.15c10.78,0,19.55-8.77,19.55-19.55v-123.21c0-10.78-8.77-19.55-19.55-19.55ZM285.71,199.09c0,9.14-7.41,16.55-16.55,16.55h-15.15c-9.14,0-16.55-7.41-16.55-16.55v-123.21c0-9.14,7.41-16.55,16.55-16.55h15.15c9.14,0,16.55,7.41,16.55,16.55v123.21Z"/>
  <path class="cls-3" d="M26.03,231.37h247.94c6.48,0,11.74,5.26,11.74,11.74v1.79c0,6.48-5.26,11.74-11.74,11.74H26.03c-6.48,0-11.74-5.26-11.74-11.74v-1.79c0-6.48,5.26-11.74,11.74-11.74Z"/>
  <path class="cls-5" d="M273.97,225.37H26.03c-9.78,0-17.74,7.96-17.74,17.74v1.79c0,9.78,7.96,17.74,17.74,17.74h247.94c9.78,0,17.74-7.96,17.74-17.74v-1.79c0-9.78-7.96-17.74-17.74-17.74ZM288.71,244.9c0,8.13-6.61,14.74-14.74,14.74H26.03c-8.13,0-14.74-6.61-14.74-14.74v-1.79c0-8.13,6.61-14.74,14.74-14.74h247.94c8.13,0,14.74,6.61,14.74,14.74v1.79Z"/>
  <path class="cls-5" d="M273.97,228.37H26.03c-8.13,0-14.74,6.61-14.74,14.74v1.79c0,8.13,6.61,14.74,14.74,14.74h247.94c8.13,0,14.74-6.61,14.74-14.74v-1.79c0-8.13-6.61-14.74-14.74-14.74ZM285.71,244.9c0,6.49-5.26,11.74-11.74,11.74H26.03c-6.49,0-11.74-5.26-11.74-11.74v-1.79c0-6.49,5.26-11.74,11.74-11.74h247.94c6.49,0,11.74,5.26,11.74,11.74v1.79Z"/>
  <path class="cls-3" d="M237.69,29.6c-.22,0-.45.02-.68.06l-42.34,6.88c-3.31.54-4.81,4.7-2.68,7.44l8.46,10.9-71.73,48.14-20.08-26.39c-1.08-1.43-2.74-2.19-4.42-2.19-1.02,0-2.05.28-2.97.87L21.13,126.34c-2.58,1.64-3.34,5.07-1.7,7.65,1.06,1.66,2.85,2.57,4.68,2.57,1.02,0,2.05-.28,2.97-.87l75.82-48.29,20.15,26.49c1.09,1.43,2.74,2.19,4.41,2.19,1.06,0,2.14-.31,3.09-.94l76.7-51.47,8.92,11.5c.87,1.13,2.1,1.67,3.32,1.67,1.54,0,3.07-.87,3.86-2.51l18.15-38.06c1.48-3.1-.7-6.65-3.82-6.65Z"/>
  <path class="cls-5" d="M246.92,38.84c1.6-3.37,1.38-7.25-.6-10.4-1.91-3.03-5.14-4.84-8.63-4.84-.55,0-1.1.04-1.64.13l-42.34,6.88c-3.61.59-6.58,3.01-7.95,6.48-1.39,3.53-.82,7.58,1.49,10.55l4.52,5.82-61.7,41.4-16.65-21.89c-2.17-2.85-5.61-4.55-9.19-4.55-2.2,0-4.34.62-6.2,1.81L17.91,121.28c-2.6,1.66-4.4,4.23-5.07,7.24-.67,3.01-.12,6.1,1.53,8.7,2.13,3.35,5.77,5.34,9.74,5.34,2.2,0,4.34-.63,6.2-1.81l71.16-45.32,16.81,22.09c2.17,2.85,5.6,4.55,9.19,4.55,2.3,0,4.52-.68,6.43-1.96l72.05-48.35,5.49,7.08c1.97,2.54,4.91,3.99,8.06,3.99,3.98,0,7.53-2.27,9.27-5.93l3.75-7.87c.62-1.94,1.5-3.77,2.6-5.44l11.8-24.75ZM226.07,75.6c-1.24,2.6-3.76,4.22-6.57,4.22-2.22,0-4.3-1.03-5.69-2.83l-7.21-9.29-74.37,49.91c-1.41.95-3.06,1.45-4.76,1.45-2.66,0-5.2-1.26-6.8-3.37l-18.48-24.29-73.49,46.81c-1.37.88-2.96,1.34-4.58,1.34-2.94,0-5.63-1.48-7.21-3.95-1.23-1.93-1.63-4.21-1.13-6.44s1.83-4.13,3.75-5.36l80.12-51.03c1.37-.88,2.96-1.34,4.58-1.34,2.65,0,5.2,1.26,6.8,3.37l18.37,24.14,66.71-44.77-6.49-8.36c-1.67-2.15-2.08-5.06-1.07-7.62.97-2.48,3.08-4.21,5.64-4.62l42.34-6.88c.39-.06.78-.09,1.16-.09,2.46,0,4.74,1.29,6.1,3.44,1.43,2.27,1.59,5.07.43,7.5l-18.15,38.06Z"/>
  <path class="cls-5" d="M232.53,69.03l2.6-5.44c-1.09,1.68-1.97,3.5-2.6,5.44Z"/>
  <path class="cls-5" d="M243.78,30.04c-1.36-2.15-3.64-3.44-6.1-3.44-.39,0-.78.03-1.16.09l-42.34,6.88c-2.55.42-4.66,2.14-5.64,4.62-1,2.55-.59,5.47,1.07,7.62l6.49,8.36-66.71,44.77-18.37-24.14c-1.61-2.11-4.15-3.37-6.8-3.37-1.63,0-3.21.46-4.58,1.34L19.52,123.81c-1.92,1.23-3.26,3.13-3.75,5.36s-.09,4.51,1.13,6.44c1.58,2.48,4.27,3.95,7.21,3.95,1.62,0,3.21-.46,4.58-1.34l73.49-46.81,18.48,24.29c1.6,2.11,4.15,3.37,6.8,3.37,1.7,0,3.34-.5,4.76-1.45l74.37-49.91,7.21,9.29c1.39,1.8,3.47,2.83,5.69,2.83,2.81,0,5.32-1.62,6.57-4.22l18.15-38.06c1.16-2.43,1-5.24-.43-7.5ZM241.51,36.25l-18.15,38.06c-.79,1.65-2.31,2.51-3.86,2.51-1.22,0-2.45-.54-3.32-1.67l-8.92-11.5-76.7,51.47c-.95.64-2.02.94-3.09.94-1.68,0-3.33-.76-4.41-2.19l-20.15-26.49-75.82,48.29c-.92.59-1.95.87-2.97.87-1.83,0-3.62-.91-4.68-2.57-1.64-2.58-.88-6.01,1.7-7.65l80.12-51.03c.92-.59,1.95-.87,2.97-.87,1.68,0,3.33.76,4.42,2.19l20.08,26.39,71.73-48.14-8.46-10.9c-2.13-2.74-.63-6.9,2.68-7.44l42.34-6.88c.23-.04.46-.06.68-.06,3.12,0,5.3,3.55,3.82,6.65Z"/>
</svg>