<svg xmlns="http://www.w3.org/2000/svg"  viewBox="0 0 40 40" width="40px" height="40px"><circle cx="23" cy="21" r="16.5" fill="#f78f8f"/><path fill="#c74343" d="M23,38c-9.374,0-17-7.626-17-17S13.626,4,23,4s17,7.626,17,17S32.374,38,23,38z M23,5 C14.178,5,7,12.178,7,21s7.178,16,16,16s16-7.178,16-16S31.822,5,23,5z"/><path fill="#ffc49c" d="M39.5,21c0-9.113-7.387-16.5-16.5-16.5c-0.169,0-0.332,0.02-0.5,0.025V21.5h16.984 C39.489,21.333,39.5,21.168,39.5,21z"/><path fill="#c74343" d="M39.969,22H22V4.04l0.682-0.025C22.787,4.007,22.893,4,23,4c9.374,0,17,7.626,17,17 c0,0.113-0.005,0.226-0.01,0.338L39.969,22z M23,21h16c0-8.822-7.178-16-16-16V21z"/><g><path fill="#ef7575" d="M16.84,30.5H3.16c-1.469,0-2.66-1.191-2.66-2.66V14.16c0-1.469,1.191-2.66,2.66-2.66H16.84 c1.469,0,2.66,1.191,2.66,2.66V27.84C19.5,29.309,18.309,30.5,16.84,30.5z"/><path fill="#c43737" d="M16.841,31H3.159C1.417,31,0,29.583,0,27.841V14.159C0,12.417,1.417,11,3.159,11h13.682 C18.583,11,20,12.417,20,14.159v13.682C20,29.583,18.583,31,16.841,31z M3.159,12C1.969,12,1,12.969,1,14.159v13.682 C1,29.031,1.969,30,3.159,30h13.682C18.031,30,19,29.031,19,27.841V14.159C19,12.969,18.031,12,16.841,12H3.159z"/></g><g><path fill="#fff" d="M10.467,15H8H7.5H6v12h2v-4l2.449,0c1.698,0,3.272-1.043,3.799-2.657 c0.135-0.413,0.205-0.822,0.217-1.218C14.534,16.859,12.717,15,10.467,15z M10.408,21H8v-4h2.408c1.217,0,1.777,0.988,1.777,1.969 S11.625,21,10.408,21z"/></g></svg>