<?xml version="1.0" encoding="UTF-8"?>
<svg id="Capa_3" data-name="Capa 3" xmlns="http://www.w3.org/2000/svg" xmlns:xlink="http://www.w3.org/1999/xlink" viewBox="0 0 300 300">
  <defs>
    <style>
      .cls-1 {
        fill: url(#Degradado_sin_nombre_90-12);
      }

      .cls-1, .cls-2, .cls-3, .cls-4, .cls-5, .cls-6, .cls-7, .cls-8, .cls-9, .cls-10, .cls-11, .cls-12, .cls-13 {
        stroke-width: 0px;
      }

      .cls-2 {
        fill: url(#Degradado_sin_nombre_90-11);
      }

      .cls-3 {
        fill: url(#Degradado_sin_nombre_90-8);
      }

      .cls-4 {
        fill: url(#Degradado_sin_nombre_90-10);
      }

      .cls-14 {
        stroke-width: 7.29px;
      }

      .cls-14, .cls-15, .cls-16, .cls-17 {
        stroke-linecap: round;
        stroke-linejoin: round;
      }

      .cls-14, .cls-15, .cls-18, .cls-17 {
        fill: none;
      }

      .cls-14, .cls-16, .cls-17 {
        stroke: #fff;
      }

      .cls-5 {
        fill: url(#Degradado_sin_nombre_90-13);
      }

      .cls-15 {
        stroke: #235ba1;
        stroke-width: 3.72px;
      }

      .cls-16 {
        stroke-width: 13.1px;
      }

      .cls-16, .cls-19, .cls-12 {
        fill: #fff;
      }

      .cls-19 {
        stroke: url(#Degradado_sin_nombre_90);
        stroke-width: 4.97px;
      }

      .cls-19, .cls-18 {
        stroke-miterlimit: 10;
      }

      .cls-6 {
        fill: #235ba1;
      }

      .cls-7 {
        fill: url(#Degradado_sin_nombre_90-9);
      }

      .cls-8 {
        fill: url(#Degradado_sin_nombre_90-5);
      }

      .cls-9 {
        fill: url(#Degradado_sin_nombre_90-3);
      }

      .cls-10 {
        fill: url(#Degradado_sin_nombre_90-7);
      }

      .cls-11 {
        fill: url(#Degradado_sin_nombre_90-6);
      }

      .cls-18 {
        stroke: url(#Degradado_sin_nombre_90-2);
        stroke-width: 6.54px;
      }

      .cls-17 {
        stroke-width: 8.63px;
      }

      .cls-13 {
        fill: url(#Degradado_sin_nombre_90-4);
      }
    </style>
    <linearGradient id="Degradado_sin_nombre_90" data-name="Degradado sin nombre 90" x1="81.09" y1="143.39" x2="286.08" y2="143.39" gradientUnits="userSpaceOnUse">
      <stop offset="0" stop-color="#16ecff"/>
      <stop offset="1" stop-color="#1271cf"/>
    </linearGradient>
    <linearGradient id="Degradado_sin_nombre_90-2" data-name="Degradado sin nombre 90" x1="221.61" y1="110.66" x2="270.02" y2="110.66" xlink:href="#Degradado_sin_nombre_90"/>
    <linearGradient id="Degradado_sin_nombre_90-3" data-name="Degradado sin nombre 90" x1="133.41" y1="97.74" x2="152.38" y2="97.74" xlink:href="#Degradado_sin_nombre_90"/>
    <linearGradient id="Degradado_sin_nombre_90-4" data-name="Degradado sin nombre 90" x1="132.15" y1="147.3" x2="151.12" y2="147.3" xlink:href="#Degradado_sin_nombre_90"/>
    <linearGradient id="Degradado_sin_nombre_90-5" data-name="Degradado sin nombre 90" x1="132.15" y1="192.67" x2="151.12" y2="192.67" xlink:href="#Degradado_sin_nombre_90"/>
    <linearGradient id="Degradado_sin_nombre_90-6" data-name="Degradado sin nombre 90" x1="221.26" y1="176.71" x2="270.08" y2="176.71" xlink:href="#Degradado_sin_nombre_90"/>
    <linearGradient id="Degradado_sin_nombre_90-7" data-name="Degradado sin nombre 90" x1="244.63" y1="147.62" x2="246.58" y2="147.62" xlink:href="#Degradado_sin_nombre_90"/>
    <linearGradient id="Degradado_sin_nombre_90-8" data-name="Degradado sin nombre 90" x1="9.55" y1="216.99" x2="154.01" y2="216.99" xlink:href="#Degradado_sin_nombre_90"/>
    <linearGradient id="Degradado_sin_nombre_90-9" data-name="Degradado sin nombre 90" x1="41.01" y1="118.24" x2="124.25" y2="118.24" gradientTransform="translate(.29 2.6) scale(.99)" xlink:href="#Degradado_sin_nombre_90"/>
    <linearGradient id="Degradado_sin_nombre_90-10" data-name="Degradado sin nombre 90" x1="9.55" y1="158.94" x2="154.01" y2="158.94" xlink:href="#Degradado_sin_nombre_90"/>
    <linearGradient id="Degradado_sin_nombre_90-11" data-name="Degradado sin nombre 90" x1="41.01" y1="157.87" x2="124.25" y2="157.87" gradientTransform="translate(.29 2.6) scale(.99)" xlink:href="#Degradado_sin_nombre_90"/>
    <linearGradient id="Degradado_sin_nombre_90-12" data-name="Degradado sin nombre 90" x1="41.01" y1="150.43" x2="124.25" y2="150.43" gradientTransform="translate(.29 2.6) scale(.99)" xlink:href="#Degradado_sin_nombre_90"/>
    <linearGradient id="Degradado_sin_nombre_90-13" data-name="Degradado sin nombre 90" x1="41.01" y1="154.46" x2="124.25" y2="154.46" gradientTransform="translate(.29 2.6) scale(.99)" xlink:href="#Degradado_sin_nombre_90"/>
  </defs>
  <rect class="cls-16" x="79.21" y="42.98" width="208.94" height="202.93" rx="21.99" ry="21.99"/>
  <g>
    <rect class="cls-19" x="83.58" y="46.51" width="200.02" height="193.77" rx="17.28" ry="17.28"/>
    <g>
      <circle class="cls-18" cx="245.82" cy="110.66" r="20.94"/>
      <line class="cls-15" x1="244.8" y1="96.51" x2="244.8" y2="112.17"/>
      <line class="cls-15" x1="254.38" y1="105.54" x2="244.8" y2="112.45"/>
    </g>
    <g>
      <rect class="cls-6" x="135.94" y="88.26" width="80.14" height="18.97" rx="8.75" ry="8.75"/>
      <circle class="cls-9" cx="142.9" cy="97.74" r="9.49"/>
    </g>
    <g>
      <rect class="cls-6" x="134.67" y="137.81" width="80.14" height="18.97" rx="8.75" ry="8.75"/>
      <circle class="cls-13" cx="141.64" cy="147.3" r="9.49"/>
    </g>
    <g>
      <rect class="cls-6" x="134.67" y="183.18" width="80.14" height="18.97" rx="8.75" ry="8.75"/>
      <circle class="cls-8" cx="141.64" cy="192.67" r="9.49"/>
    </g>
    <g>
      <circle class="cls-12" cx="112.98" cy="204.3" r="10.14"/>
      <path class="cls-14" d="M117.12,199.16s5.69-12.52,5.53-27.22"/>
      <path class="cls-17" d="M44.1,187.92s-2.02-6.06-3.87-15.42"/>
      <g>
        <rect class="cls-12" x="39.63" y="216.23" width="10.52" height="13.96" rx="5.26" ry="5.26" transform="translate(-44.59 13.85) rotate(-11.77)"/>
        <rect class="cls-12" x="62.42" y="207.74" width="10.52" height="13.96" rx="4.56" ry="4.56" transform="translate(-83.06 47.5) rotate(-24.54)"/>
        <path class="cls-14" d="M70.87,214.86c.74-3.68.51-7.71-.89-11.65-3.73-10.49-14.31-16.32-23.64-13-9.32,3.31-13.86,14.51-10.13,25,1.4,3.94,3.76,7.21,6.66,9.6"/>
      </g>
    </g>
  </g>
  <g>
    <path class="cls-11" d="M226.16,179.21c4.78,9.11,11.1,17.02,18.02,24.52.45.49.93.73,1.41.73.55,0,1.1-.3,1.64-.89,1.14-1.24,2.23-2.54,3.35-3.8,4.92-5.51,9.46-11.3,13.07-17.76,2.04-3.66,3.83-7.46,3.73-11.79-.27-11.79-10.01-21.26-21.78-21.26-.02,0-.05,0-.08,0-15.89.19-26.38,16.87-19.36,30.25ZM245.65,160.81h.01c5.36,0,9.92,4.52,9.94,9.84.02,5.5-4.52,10.09-9.98,10.09h-.02c-5.33-.01-9.93-4.58-9.94-9.86-.01-5.53,4.48-10.06,9.98-10.06Z"/>
    <polygon class="cls-10" points="245.6 146.27 245.6 146.27 245.6 148.96 245.6 146.27"/>
    <path class="cls-12" d="M245.61,178.04c1.92,0,3.74-.77,5.13-2.17,1.41-1.42,2.18-3.27,2.17-5.22-.02-3.81-3.41-7.16-7.26-7.16v-2.69s0,2.69,0,2.69c-1.93,0-3.75.76-5.13,2.15-1.4,1.4-2.16,3.25-2.16,5.22,0,3.82,3.4,7.17,7.25,7.18Z"/>
    <path class="cls-12" d="M245.6,143.58v2.69c13.19,0,24.17,10.72,24.47,23.88.11,4.96-1.89,9.26-4.07,13.16-3.27,5.85-7.53,11.64-13.42,18.24-.45.5-.89,1.01-1.33,1.52-.68.78-1.35,1.56-2.05,2.32-1.34,1.45-2.7,1.76-3.61,1.76s-2.17-.28-3.39-1.6c-8.44-9.15-14.12-16.89-18.43-25.09-3.63-6.92-3.32-15.2.83-22.16,4.43-7.43,12.24-11.92,20.88-12.03h.11s0,0,0,0v-2.69h-.09c-9.63.11-18.29,5.1-23.21,13.34-4.63,7.77-4.97,17.03-.9,24.78,4.42,8.42,10.23,16.34,18.83,25.67,1.46,1.59,3.37,2.46,5.36,2.46,1.45,0,3.6-.46,5.59-2.63.73-.79,1.43-1.59,2.1-2.37.43-.5.87-1,1.31-1.49,6.02-6.75,10.39-12.69,13.76-18.72,2.37-4.24,4.54-8.93,4.41-14.53-.34-14.62-12.52-26.51-27.16-26.51Z"/>
    <path class="cls-12" d="M235.67,170.87c.01,5.29,4.61,9.85,9.94,9.86h.02c5.46,0,10-4.59,9.98-10.09-.02-5.32-4.58-9.83-9.94-9.84h-.01c-5.5,0-9.99,4.53-9.98,10.06ZM245.65,163.49v-2.69,2.69c3.86,0,7.25,3.35,7.27,7.16,0,1.95-.76,3.81-2.17,5.22-1.39,1.4-3.21,2.17-5.13,2.17-3.86,0-7.25-3.36-7.25-7.18,0-1.97.76-3.82,2.16-5.22,1.38-1.38,3.2-2.15,5.13-2.15Z"/>
    <path class="cls-12" d="M245.49,146.27c-8.65.1-16.45,4.6-20.88,12.03-4.15,6.96-4.46,15.24-.83,22.16,4.31,8.21,9.99,15.95,18.43,25.09,1.22,1.32,2.51,1.6,3.39,1.6s2.28-.31,3.61-1.76c.7-.76,1.38-1.54,2.05-2.32.44-.51.88-1.01,1.33-1.52,5.89-6.59,10.15-12.39,13.42-18.24,2.18-3.9,4.18-8.2,4.07-13.16-.3-13.17-11.28-23.88-24.47-23.88v2.69-2.69s0,0,0,0h-.11ZM267.39,170.22c.1,4.33-1.68,8.13-3.73,11.79-3.61,6.46-8.16,12.25-13.07,17.76-1.13,1.26-2.21,2.56-3.35,3.8-.54.59-1.09.89-1.64.89-.48,0-.96-.24-1.41-.73-6.92-7.5-13.24-15.41-18.02-24.52-7.02-13.38,3.47-30.06,19.36-30.25.02,0,.05,0,.08,0,11.78,0,21.51,9.46,21.78,21.26Z"/>
    <path class="cls-3" d="M56.72,162.46c-24.86,10.54-42.44,36.27-42.44,66.36,0,39.47,30.22,42.7,67.5,42.7s67.5-3.23,67.5-42.7c0-30.09-17.57-55.82-42.44-66.36-7.21,4.75-15.81,7.52-25.06,7.52s-17.85-2.77-25.06-7.52Z"/>
    <path class="cls-12" d="M114.86,155.76c-1.17,1.23-2.4,2.39-3.69,3.48,25.22,11.9,42.84,38.6,42.84,69.58,0,20.1-7.36,33.32-22.49,40.44-13.74,6.46-32.88,7-49.74,7s-36-.54-49.74-7c-15.13-7.11-22.49-20.34-22.49-40.44,0-30.98,17.63-57.68,42.84-69.58-1.3-1.09-2.53-2.25-3.69-3.48-25.93,13.03-43.88,40.88-43.88,73.06,0,21.81,8.48,36.86,25.21,44.72,13.19,6.2,29.59,7.45,51.75,7.45s38.56-1.25,51.75-7.45c16.73-7.86,25.21-22.91,25.21-44.72,0-32.18-17.96-60.03-43.88-73.06Z"/>
    <path class="cls-12" d="M149.28,228.82c0,39.47-30.22,42.7-67.5,42.7s-67.5-3.23-67.5-42.7c0-30.09,17.57-55.82,42.44-66.36-1.51-.99-2.95-2.07-4.33-3.23-25.22,11.9-42.84,38.6-42.84,69.58,0,20.1,7.36,33.32,22.49,40.44,13.74,6.46,32.88,7,49.74,7s36-.54,49.74-7c15.13-7.11,22.49-20.34,22.49-40.44,0-30.98-17.62-57.68-42.84-69.58-1.38,1.16-2.82,2.23-4.33,3.23,24.86,10.54,42.44,36.27,42.44,66.36Z"/>
    <path class="cls-7" d="M105.35,151.78c7.8-6.69,12.75-16.63,12.75-27.73,0-20.14-16.26-36.47-36.32-36.47s-36.32,16.33-36.32,36.47c0,11.11,4.95,21.04,12.75,27.73,7.43-2.52,15.35-3.9,23.57-3.9s16.14,1.38,23.57,3.9Z"/>
    <path class="cls-4" d="M93.72,158.49c-3.88-.73-7.86-1.14-11.94-1.14s-8.06.4-11.94,1.14c3.74,1.31,7.76,2.03,11.94,2.03s8.2-.72,11.94-2.03Z"/>
    <path class="cls-2" d="M93.72,158.49c-3.88-.73-7.86-1.14-11.94-1.14s-8.06.4-11.94,1.14c3.74,1.31,7.76,2.03,11.94,2.03s8.2-.72,11.94-2.03Z"/>
    <path class="cls-12" d="M100.59,155.26c1.69-1.03,3.27-2.19,4.77-3.47-7.43-2.52-15.35-3.9-23.57-3.9s-16.14,1.38-23.57,3.9c1.49,1.28,3.08,2.44,4.77,3.47,6-1.71,12.3-2.64,18.8-2.64s12.8.93,18.8,2.64Z"/>
    <path class="cls-1" d="M100.59,155.26c1.69-1.03,3.27-2.19,4.77-3.47-7.43-2.52-15.35-3.9-23.57-3.9s-16.14,1.38-23.57,3.9c1.49,1.28,3.08,2.44,4.77,3.47,6-1.71,12.3-2.64,18.8-2.64s12.8.93,18.8,2.64Z"/>
    <path class="cls-12" d="M93.72,158.49c2.41-.84,4.71-1.93,6.86-3.24-6-1.71-12.3-2.64-18.8-2.64s-12.8.93-18.8,2.64c2.15,1.31,4.45,2.39,6.86,3.24,3.88-.73,7.86-1.14,11.94-1.14s8.06.4,11.94,1.14Z"/>
    <path class="cls-5" d="M93.72,158.49c2.41-.84,4.71-1.93,6.86-3.24-6-1.71-12.3-2.64-18.8-2.64s-12.8.93-18.8,2.64c2.15,1.31,4.45,2.39,6.86,3.24,3.88-.73,7.86-1.14,11.94-1.14s8.06.4,11.94,1.14Z"/>
    <path class="cls-12" d="M40.73,124.05c0-22.72,18.42-41.2,41.05-41.2s41.05,18.48,41.05,41.2c0,11.61-4.82,22.12-12.55,29.61,1.55.65,3.08,1.34,4.58,2.09,7.86-8.25,12.71-19.42,12.71-31.71,0-25.33-20.54-45.93-45.78-45.93s-45.78,20.6-45.78,45.93c0,12.29,4.84,23.45,12.71,31.71,1.5-.75,3.03-1.44,4.58-2.09-7.73-7.5-12.55-18-12.55-29.61Z"/>
    <path class="cls-12" d="M62.4,160.36c-1.93.61-3.82,1.32-5.68,2.1,7.21,4.75,15.81,7.52,25.06,7.52s17.85-2.77,25.06-7.52c-1.86-.79-3.75-1.49-5.68-2.1-5.78,3.12-12.38,4.89-19.38,4.89s-13.6-1.77-19.38-4.89Z"/>
    <path class="cls-12" d="M57.33,157.12c-1.42-1.06-2.77-2.22-4.05-3.46-1.55.65-3.08,1.34-4.58,2.09,1.17,1.23,2.4,2.39,3.69,3.48,1.62-.76,3.26-1.48,4.94-2.11Z"/>
    <path class="cls-12" d="M106.23,157.12c1.68.64,3.32,1.35,4.94,2.11,1.3-1.09,2.52-2.25,3.69-3.48-1.5-.75-3.03-1.44-4.58-2.09-1.27,1.24-2.62,2.4-4.05,3.46Z"/>
    <path class="cls-12" d="M101.16,160.36c1.93.61,3.82,1.32,5.68,2.1,1.51-.99,2.95-2.07,4.33-3.23-1.62-.76-3.26-1.48-4.94-2.11-1.6,1.2-3.3,2.28-5.07,3.24Z"/>
    <path class="cls-12" d="M62.4,160.36c-1.77-.96-3.47-2.04-5.07-3.24-1.68.64-3.32,1.35-4.94,2.11,1.38,1.16,2.82,2.23,4.33,3.23,1.86-.79,3.75-1.49,5.68-2.1Z"/>
    <path class="cls-12" d="M45.46,124.05c0-20.14,16.26-36.47,36.32-36.47s36.32,16.33,36.32,36.47c0,11.11-4.95,21.04-12.75,27.73,1.67.57,3.31,1.2,4.93,1.88,7.73-7.5,12.55-18,12.55-29.61,0-22.72-18.42-41.2-41.05-41.2s-41.05,18.48-41.05,41.2c0,11.61,4.82,22.12,12.55,29.61,1.62-.68,3.26-1.31,4.93-1.88-7.8-6.69-12.75-16.63-12.75-27.73Z"/>
    <path class="cls-12" d="M81.78,160.52c-4.18,0-8.2-.72-11.94-2.03-2.53.48-5.02,1.1-7.44,1.87,5.78,3.12,12.38,4.89,19.38,4.89s13.6-1.77,19.38-4.89c-2.43-.77-4.91-1.39-7.44-1.87-3.74,1.31-7.76,2.03-11.94,2.03Z"/>
    <path class="cls-12" d="M58.21,151.78c-1.67.57-3.31,1.2-4.93,1.88,1.27,1.24,2.62,2.4,4.05,3.46,1.85-.7,3.73-1.32,5.65-1.87-1.69-1.03-3.27-2.19-4.77-3.47Z"/>
    <path class="cls-12" d="M100.59,155.26c1.91.55,3.8,1.16,5.65,1.87,1.42-1.06,2.77-2.22,4.05-3.46-1.62-.68-3.26-1.31-4.93-1.88-1.49,1.28-3.08,2.44-4.77,3.47Z"/>
    <path class="cls-12" d="M93.72,158.49c2.53.48,5.02,1.1,7.44,1.87,1.77-.96,3.47-2.04,5.07-3.24-1.85-.7-3.73-1.32-5.65-1.87-2.15,1.31-4.45,2.39-6.86,3.24Z"/>
    <path class="cls-12" d="M69.84,158.49c-2.41-.84-4.71-1.93-6.86-3.24-1.91.55-3.8,1.16-5.65,1.87,1.6,1.2,3.3,2.28,5.07,3.24,2.43-.77,4.91-1.39,7.44-1.87Z"/>
  </g>
</svg>