<?xml version="1.0" encoding="UTF-8"?>
<svg id="Capa_3" data-name="Capa 3" xmlns="http://www.w3.org/2000/svg" xmlns:xlink="http://www.w3.org/1999/xlink" viewBox="0 0 300 300">
  <defs>
    <style>
      .cls-1 {
        opacity: .54;
      }

      .cls-1, .cls-2, .cls-3, .cls-4, .cls-5, .cls-6, .cls-7 {
        stroke-width: 0px;
      }

      .cls-1, .cls-6 {
        fill: #fff;
      }

      .cls-2 {
        fill: url(#Degradado_sin_nombre_90);
      }

      .cls-3 {
        fill: url(#Degradado_sin_nombre_90-2);
      }

      .cls-4 {
        fill: #235ba1;
      }

      .cls-5 {
        fill: url(#Degradado_sin_nombre_90-3);
      }

      .cls-7 {
        fill: url(#Degradado_sin_nombre_90-4);
      }
    </style>
    <linearGradient id="Degradado_sin_nombre_90" data-name="Degradado sin nombre 90" x1="94.36" y1="24.72" x2="221.46" y2="229.71" gradientUnits="userSpaceOnUse">
      <stop offset="0" stop-color="#16ecff"/>
      <stop offset="1" stop-color="#1271cf"/>
    </linearGradient>
    <linearGradient id="Degradado_sin_nombre_90-2" data-name="Degradado sin nombre 90" x1="135.88" y1="-1.02" x2="262.98" y2="203.97" xlink:href="#Degradado_sin_nombre_90"/>
    <linearGradient id="Degradado_sin_nombre_90-3" data-name="Degradado sin nombre 90" x1="119.66" y1="9.03" x2="246.76" y2="214.03" xlink:href="#Degradado_sin_nombre_90"/>
    <linearGradient id="Degradado_sin_nombre_90-4" data-name="Degradado sin nombre 90" x1="78.31" y1="34.67" x2="205.41" y2="239.67" xlink:href="#Degradado_sin_nombre_90"/>
  </defs>
  <path class="cls-6" d="M213.66,209.86c0,6.93-5.63,12.56-12.56,12.56h-96.04c-6.92,0-12.56-5.63-12.56-12.56,0-4.38,2.26-8.25,5.68-10.49h-5.25c-2.44,2.82-3.93,6.48-3.93,10.49,0,5.47,2.75,10.3,6.94,13.21h114.27c4.19-2.9,6.94-7.74,6.94-13.21,0-4.01-1.49-7.68-3.93-10.49h-5.25c3.42,2.25,5.68,6.11,5.68,10.49Z"/>
  <path class="cls-6" d="M92.51,209.86c0,6.93,5.63,12.56,12.56,12.56h96.04c6.93,0,12.56-5.63,12.56-12.56,0-4.38-2.26-8.25-5.68-10.49h-109.8c-3.42,2.25-5.68,6.11-5.68,10.49ZM97.56,204.8c.33-.48.7-.93,1.11-1.34.61-.61,1.32-1.14,2.09-1.56.32-.17.65-.33,1-.47,1.03-.41,2.15-.63,3.32-.63h96.04c.39,0,.78.02,1.15.07.76.1,1.48.29,2.17.56.34.14.68.29,1,.47.77.42,1.47.95,2.09,1.56.41.41.78.86,1.11,1.34.98,1.45,1.55,3.19,1.55,5.07,0,.31-.02.62-.05.93-.06.61-.18,1.2-.36,1.77-.09.28-.19.56-.3.83-.34.81-.8,1.57-1.36,2.24-.37.45-.78.86-1.23,1.23-.22.18-.46.36-.7.52-.48.33-1,.61-1.54.84-1.08.46-2.28.71-3.53.71h-96.04c-.63,0-1.24-.06-1.83-.18-.59-.12-1.16-.3-1.7-.53-.54-.23-1.06-.51-1.54-.84-.24-.16-.47-.34-.7-.52-.45-.37-.86-.78-1.23-1.23-.55-.67-1.01-1.42-1.36-2.24-.11-.27-.22-.55-.3-.83-.18-.57-.3-1.16-.36-1.77-.03-.3-.05-.61-.05-.93,0-1.88.57-3.62,1.55-5.07Z"/>
  <path class="cls-6" d="M264.41,31.29H35.97c-10.24,0-18.54,8.3-18.54,18.54v130.99c0,10.24,8.3,18.54,18.54,18.54h56.97c2.95-3.4,7.29-5.57,12.13-5.57h96.04c4.84,0,9.18,2.16,12.13,5.57h51.18c10.24,0,18.54-8.3,18.54-18.54V49.84c0-10.24-8.3-18.54-18.54-18.54ZM266.41,169.22c0,8.83-7.16,15.99-15.99,15.99H49.13c-8.83,0-15.99-7.16-15.99-15.99V58.97c0-8.83,7.16-15.99,15.99-15.99h201.29c8.83,0,15.99,7.16,15.99,15.99v110.26Z"/>
  <path class="cls-6" d="M201.1,193.81h-96.04c-4.84,0-9.18,2.16-12.13,5.57h5.25c1.98-1.3,4.34-2.06,6.88-2.06h96.04c2.54,0,4.9.76,6.88,2.06h5.25c-2.95-3.4-7.29-5.57-12.13-5.57Z"/>
  <path class="cls-6" d="M201.1,197.31h-96.04c-2.54,0-4.9.76-6.88,2.06h109.8c-1.98-1.3-4.34-2.06-6.88-2.06Z"/>
  <path class="cls-6" d="M250.42,42.98H49.13c-8.83,0-15.99,7.16-15.99,15.99v110.26c0,8.83,7.16,15.99,15.99,15.99h201.29c8.83,0,15.99-7.16,15.99-15.99V58.97c0-8.83-7.16-15.99-15.99-15.99ZM54.9,93.16c0-3.55,2.88-6.43,6.43-6.43h8.92v-9.34c0-3.55,2.88-6.43,6.43-6.43h12.89c3.55,0,6.43,2.88,6.43,6.43v9.34h8.92c3.55,0,6.43,2.88,6.43,6.43v12.38c0,3.55-2.88,6.43-6.43,6.43h-8.92v9.34c0,3.55-2.88,6.43-6.43,6.43h-12.89c-3.55,0-6.43-2.88-6.43-6.43v-9.34h-8.92c-3.55,0-6.43-2.88-6.43-6.43v-12.38ZM248.85,153.35c0,5.46-4.42,9.88-9.88,9.88H64.78c-5.46,0-9.88-4.42-9.88-9.88v-.06c0-5.46,4.42-9.88,9.88-9.88h174.18c5.46,0,9.88,4.42,9.88,9.88v.06ZM248.85,117.13c0,5.46-4.42,9.88-9.88,9.88h-104.62c-5.46,0-9.88-4.42-9.88-9.88v-.06c0-5.46,4.42-9.88,9.88-9.88h104.62c5.46,0,9.88,4.42,9.88,9.88v.06ZM248.85,80.9c0,5.46-4.42,9.88-9.88,9.88h-104.62c-5.46,0-9.88-4.42-9.88-9.88v-.06c0-5.46,4.42-9.88,9.88-9.88h104.62c5.46,0,9.88,4.42,9.88,9.88v.06Z"/>
  <path class="cls-2" d="M250.42,42.98H49.13c-8.83,0-15.99,7.16-15.99,15.99v110.26c0,8.83,7.16,15.99,15.99,15.99h201.29c8.83,0,15.99-7.16,15.99-15.99V58.97c0-8.83-7.16-15.99-15.99-15.99ZM54.9,93.16c0-3.55,2.88-6.43,6.43-6.43h8.92v-9.34c0-3.55,2.88-6.43,6.43-6.43h12.89c3.55,0,6.43,2.88,6.43,6.43v9.34h8.92c3.55,0,6.43,2.88,6.43,6.43v12.38c0,3.55-2.88,6.43-6.43,6.43h-8.92v9.34c0,3.55-2.88,6.43-6.43,6.43h-12.89c-3.55,0-6.43-2.88-6.43-6.43v-9.34h-8.92c-3.55,0-6.43-2.88-6.43-6.43v-12.38ZM248.85,153.35c0,5.46-4.42,9.88-9.88,9.88H64.78c-5.46,0-9.88-4.42-9.88-9.88v-.06c0-5.46,4.42-9.88,9.88-9.88h174.18c5.46,0,9.88,4.42,9.88,9.88v.06ZM248.85,117.13c0,5.46-4.42,9.88-9.88,9.88h-104.62c-5.46,0-9.88-4.42-9.88-9.88v-.06c0-5.46,4.42-9.88,9.88-9.88h104.62c5.46,0,9.88,4.42,9.88,9.88v.06ZM248.85,80.9c0,5.46-4.42,9.88-9.88,9.88h-104.62c-5.46,0-9.88-4.42-9.88-9.88v-.06c0-5.46,4.42-9.88,9.88-9.88h104.62c5.46,0,9.88,4.42,9.88,9.88v.06Z"/>
  <path class="cls-4" d="M96.42,212.56c.09.28.19.56.3.83.34.81.8,1.57,1.36,2.24.37.45.78.86,1.23,1.23.22.18.46.36.7.52.48.33,1,.61,1.54.84.54.23,1.11.41,1.7.53.59.12,1.2.18,1.83.18h96.04c1.25,0,2.44-.25,3.53-.71.54-.23,1.06-.51,1.54-.84.24-.16.47-.34.7-.52.45-.37.86-.78,1.23-1.23.55-.67,1.01-1.42,1.36-2.24.11-.27.22-.55.3-.83.18-.57.3-1.16.36-1.77.03-.3.05-.61.05-.93,0-1.88-.57-3.62-1.55-5.07-.33-.48-.7-.93-1.11-1.34-.61-.61-1.32-1.14-2.09-1.56-.32-.17-.65-.33-1-.47-.69-.27-1.41-.46-2.17-.56-.38-.05-.76-.07-1.15-.07h-96.04c-1.17,0-2.29.22-3.32.63-.34.14-.68.29-1,.47-.77.42-1.47.95-2.09,1.56-.41.41-.78.86-1.11,1.34-.98,1.45-1.55,3.19-1.55,5.07,0,.31.02.62.05.93.06.61.18,1.2.36,1.77Z"/>
  <path class="cls-4" d="M98.66,203.46c.61-.61,1.32-1.14,2.09-1.56-.77.42-1.47.95-2.09,1.56Z"/>
  <path class="cls-4" d="M201.1,200.81c.39,0,.78.02,1.15.07-.38-.05-.76-.07-1.15-.07h-96.04c-1.17,0-2.29.22-3.32.63,1.03-.41,2.15-.63,3.32-.63h96.04Z"/>
  <path class="cls-4" d="M205.42,201.9c.77.42,1.47.95,2.09,1.56-.61-.61-1.32-1.14-2.09-1.56Z"/>
  <path class="cls-4" d="M207.51,203.46c.41.41.78.86,1.11,1.34-.33-.48-.7-.93-1.11-1.34Z"/>
  <path class="cls-4" d="M97.56,204.8c.33-.48.7-.93,1.11-1.34-.41.41-.78.86-1.11,1.34Z"/>
  <path class="cls-4" d="M105.07,218.92h0c-.63,0-1.24-.06-1.83-.18.59.12,1.2.18,1.83.18Z"/>
  <path class="cls-4" d="M68.8,232.12l-15.51,27.35c-2.93,5.17.97,11.46,7.1,11.46h190.36c6.13,0,10.03-6.29,7.1-11.46l-15.51-27.35c-1.41-2.49-4.14-4.05-7.1-4.05H75.89c-2.96,0-5.68,1.55-7.1,4.05Z"/>
  <path class="cls-6" d="M235.24,225.57c3.86,0,7.41,2.04,9.27,5.31l15.51,27.35c1.78,3.13,1.76,6.86-.06,9.98-1.9,3.27-5.35,5.21-9.22,5.21H60.39c-3.87,0-7.31-1.95-9.22-5.22-1.81-3.11-1.83-6.84-.06-9.98l15.51-27.35c1.86-3.28,5.41-5.31,9.27-5.31h25.84c-2.11-.45-4.06-1.31-5.78-2.5h-20.06c-4.76,0-9.15,2.52-11.45,6.58l-15.51,27.35c-2.22,3.92-2.19,8.58.07,12.47,2.36,4.04,6.61,6.46,11.38,6.46h190.36c4.77,0,9.02-2.41,11.38-6.46,2.27-3.89,2.29-8.55.07-12.47l-15.51-27.35c-2.3-4.06-6.69-6.58-11.45-6.58h-25.02c-1.72,1.19-3.67,2.05-5.78,2.5h30.8Z"/>
  <path class="cls-6" d="M101.73,225.57h102.71c2.11-.45,4.06-1.31,5.78-2.5h-114.27c1.72,1.19,3.67,2.05,5.78,2.5Z"/>
  <path class="cls-6" d="M66.62,230.88l-15.51,27.35c-1.78,3.13-1.76,6.86.06,9.98,1.9,3.27,5.35,5.22,9.22,5.22h190.36c3.87,0,7.31-1.95,9.22-5.21,1.81-3.11,1.83-6.84.06-9.98l-15.51-27.35c-1.86-3.28-5.41-5.31-9.27-5.31h-30.8c-1.08.23-2.19.35-3.34.35h-96.04c-1.14,0-2.26-.13-3.34-.35h-25.84c-3.86,0-7.41,2.04-9.27,5.31ZM235.24,228.07c2.96,0,5.68,1.55,7.1,4.05l15.51,27.35c2.93,5.17-.97,11.46-7.1,11.46H60.39c-6.13,0-10.03-6.29-7.1-11.46l15.51-27.35c1.41-2.49,4.14-4.05,7.1-4.05h159.35Z"/>
  <path class="cls-6" d="M201.1,225.92c1.14,0,2.26-.13,3.34-.35h-102.71c1.08.23,2.19.35,3.34.35h96.04Z"/>
  <rect class="cls-6" x="124.47" y="70.96" width="124.38" height="19.82" rx="9.88" ry="9.88"/>
  <rect class="cls-3" x="124.47" y="70.96" width="124.38" height="19.82" rx="9.88" ry="9.88"/>
  <rect class="cls-1" x="124.47" y="70.96" width="124.38" height="19.82" rx="9.88" ry="9.88"/>
  <rect class="cls-6" x="124.47" y="107.19" width="124.38" height="19.82" rx="9.88" ry="9.88"/>
  <rect class="cls-5" x="124.47" y="107.19" width="124.38" height="19.82" rx="9.88" ry="9.88"/>
  <rect class="cls-1" x="124.47" y="107.19" width="124.38" height="19.82" rx="9.88" ry="9.88"/>
  <rect class="cls-6" x="54.9" y="143.41" width="193.94" height="19.82" rx="9.88" ry="9.88"/>
  <rect class="cls-7" x="54.9" y="143.41" width="193.94" height="19.82" rx="9.88" ry="9.88"/>
  <rect class="cls-1" x="54.9" y="143.41" width="193.94" height="19.82" rx="9.88" ry="9.88"/>
  <path class="cls-6" d="M70.25,121.31c0,3.55,2.88,6.43,6.43,6.43h12.89c3.55,0,6.43-2.88,6.43-6.43v-9.34h-25.75v9.34Z"/>
  <path class="cls-6" d="M96,77.39c0-3.55-2.88-6.43-6.43-6.43h-12.89c-3.55,0-6.43,2.88-6.43,6.43v9.34h25.75v-9.34Z"/>
  <path class="cls-6" d="M104.93,111.97c3.55,0,6.43-2.88,6.43-6.43v-12.38c0-3.55-2.88-6.43-6.43-6.43h-8.92v25.24h8.92Z"/>
  <path class="cls-6" d="M61.33,111.97h8.92v-25.24h-8.92c-3.55,0-6.43,2.88-6.43,6.43v12.38c0,3.55,2.88,6.43,6.43,6.43Z"/>
  <rect class="cls-6" x="70.25" y="86.73" width="25.75" height="25.24"/>
</svg>